<svg id="apple" xmlns="http://www.w3.org/2000/svg" width="215.353" height="54.322" viewBox="0 0 215.353 54.322">
  <g id="Group_6706" data-name="Group 6706">
    <path id="Path_3524" data-name="Path 3524" d="M178.316,1017.021a39.041,39.041,0,0,1-3.529,6.589c-2.293,3.489-5.522,7.834-9.525,7.871-3.557.033-4.471-2.315-9.3-2.289s-5.835,2.33-9.392,2.3c-4-.037-7.063-3.961-9.356-7.45-6.409-9.756-7.079-21.207-3.126-27.293,2.809-4.326,7.24-6.858,11.407-6.858,4.242,0,6.91,2.327,10.417,2.327,3.4,0,5.476-2.33,10.381-2.33a13.843,13.843,0,0,1,10.435,5.51C167.56,1000.42,169.049,1013.519,178.316,1017.021Z" transform="translate(-131.637 -977.168)" fill="#fff"/>
    <g id="Group_6705" data-name="Group 6705" transform="translate(22.436)">
      <path id="Path_3525" data-name="Path 3525" d="M188.709,971.174a11.907,11.907,0,0,0,2.644-8.819,12.865,12.865,0,0,0-8.3,4.467c-1.8,2.193-3.294,5.444-2.714,8.6A10.859,10.859,0,0,0,188.709,971.174Z" transform="translate(-180.207 -962.355)" fill="#fff"/>
    </g>
  </g>
  <g id="Group_6709" data-name="Group 6709" transform="translate(64.476 0.116)">
    <g id="Group_6707" data-name="Group 6707" transform="translate(0 18.884)">
      <path id="Path_3526" data-name="Path 3526" d="M264.263,1004.42l-9.181,27.025h4.2l2.741-8.3h8.889l2.819,8.3h4.32l-9.221-27.025Zm2.178,4.443c.31,1.206.644,2.459,1.074,3.813l2.474,7.166h-7.042l2.44-7.213C265.76,1011.46,266.112,1010.2,266.441,1008.863Z" transform="translate(-255.082 -1003.989)" fill="#fff"/>
      <path id="Path_3527" data-name="Path 3527" d="M318.417,1019.586a7.65,7.65,0,0,0-6.5,3.119l-.163-2.688h-3.74l.022.344c.11,1.675.156,3.518.156,6.164v20.83h4.089v-9.721a7.18,7.18,0,0,0,5.589,2.4,8.43,8.43,0,0,0,6.2-2.634,11.171,11.171,0,0,0,2.736-7.865,10.877,10.877,0,0,0-2.375-7.181A7.78,7.78,0,0,0,318.417,1019.586Zm-1.019,3.385c3.645,0,5.276,3.377,5.276,6.722,0,4.315-2.081,7-5.431,7a4.957,4.957,0,0,1-4.817-3.794,5.216,5.216,0,0,1-.145-1.323v-3.288a6.158,6.158,0,0,1,.13-1.009c.02-.112.043-.224.059-.332A5.177,5.177,0,0,1,317.4,1022.971Z" transform="translate(-283.563 -1012.15)" fill="#fff"/>
      <path id="Path_3528" data-name="Path 3528" d="M364,1019.586a7.654,7.654,0,0,0-6.5,3.119l-.163-2.688H353.6l.021.344c.111,1.676.158,3.518.158,6.164v20.83h4.089v-9.721a7.176,7.176,0,0,0,5.587,2.4,8.442,8.442,0,0,0,6.2-2.634,11.185,11.185,0,0,0,2.734-7.865,10.878,10.878,0,0,0-2.377-7.181A7.777,7.777,0,0,0,364,1019.586Zm-1.018,3.385c3.643,0,5.275,3.377,5.275,6.722,0,4.315-2.083,7-5.431,7a4.957,4.957,0,0,1-4.817-3.794,5.22,5.22,0,0,1-.144-1.323v-3.288a6.076,6.076,0,0,1,.13-1.013c.02-.11.041-.22.059-.328A5.174,5.174,0,0,1,362.981,1022.971Z" transform="translate(-308.089 -1012.15)" fill="#fff"/>
      <path id="Path_3529" data-name="Path 3529" d="M421.879,1015.369c-3.816-1.478-5.039-2.64-5.039-4.787,0-1.808,1.437-3.632,4.648-3.632a9.291,9.291,0,0,1,4.8,1.205l.346.214,1.154-3.412-.228-.133a11.85,11.85,0,0,0-5.954-1.336c-5.214,0-8.856,3.078-8.856,7.484,0,3.554,2.281,6.037,7.177,7.817,3.47,1.3,4.762,2.626,4.762,4.9,0,2.578-1.993,4.178-5.2,4.178a11.19,11.19,0,0,1-5.893-1.671l-.355-.227-1.1,3.491.2.133a14,14,0,0,0,6.91,1.776c7.027,0,9.519-4.285,9.519-7.954C428.776,1019.636,426.779,1017.3,421.879,1015.369Z" transform="translate(-339.592 -1003.488)" fill="#fff"/>
      <path id="Path_3530" data-name="Path 3530" d="M455.991,1010.439l-4.01,1.259v3.4h-2.936v3.268h2.936v10.01c0,2.42.463,4.116,1.416,5.188a5.242,5.242,0,0,0,3.956,1.553,9.634,9.634,0,0,0,3.161-.488l.229-.081-.2-3.274-.392.121a6.16,6.16,0,0,1-1.9.22c-1.584,0-2.261-1-2.261-3.356v-9.892h4.932v-3.268h-4.932Z" transform="translate(-359.447 -1007.228)" fill="#fff"/>
      <path id="Path_3531" data-name="Path 3531" d="M485.378,1019.586c-5.721,0-9.716,4.27-9.716,10.381,0,5.928,3.866,10.068,9.4,10.068h.038c4.68,0,9.716-3.26,9.716-10.42a10.33,10.33,0,0,0-2.606-7.232A9.1,9.1,0,0,0,485.378,1019.586Zm-.118,3.228c3.678,0,5.353,3.586,5.353,6.919,0,4.1-2.285,7.073-5.43,7.073h-.04c-3.1,0-5.352-2.925-5.352-6.955C479.791,1026.349,481.482,1022.814,485.26,1022.814Z" transform="translate(-373.769 -1012.15)" fill="#fff"/>
      <path id="Path_3532" data-name="Path 3532" d="M532.389,1019.776l-.245-.062a3.938,3.938,0,0,0-1.017-.128,5.833,5.833,0,0,0-5.127,3.292l-.12-2.861h-3.669l.023.344c.109,1.619.154,3.435.154,5.888l-.038,13.357h4.089v-10.421a10.545,10.545,0,0,1,.113-1.585c.461-2.5,2.15-4.12,4.3-4.12a10.466,10.466,0,0,1,1.1.068l.437.045Z" transform="translate(-398.815 -1012.15)" fill="#fff"/>
      <path id="Path_3533" data-name="Path 3533" d="M553.376,1019.5c-5.443,0-9.245,4.349-9.245,10.576,0,6,3.782,9.873,9.636,9.873a15.681,15.681,0,0,0,6.474-1.242l.246-.111-.786-3.047-.341.138a12.67,12.67,0,0,1-5.123.916c-1.776,0-5.874-.586-6.124-5.928l13.2.04.053-.261a9.083,9.083,0,0,0,.123-1.707C561.487,1024.483,559.363,1019.5,553.376,1019.5Zm-.272,3.111a4.035,4.035,0,0,1,3,1.145,5.82,5.82,0,0,1,1.408,3.806h-9.325C548.568,1025.2,550.045,1022.613,553.1,1022.613Z" transform="translate(-410.61 -1012.104)" fill="#fff"/>
    </g>
    <g id="Group_6708" data-name="Group 6708">
      <path id="Path_3534" data-name="Path 3534" d="M255.082,964.146a29.808,29.808,0,0,1,3.922-.265c2.636,0,4.513.531,5.757,1.575a5.6,5.6,0,0,1,2.025,4.611,6.475,6.475,0,0,1-2.045,4.972c-1.35,1.2-3.543,1.841-6.3,1.841a28.366,28.366,0,0,1-3.353-.152Zm1.856,11.329a13.166,13.166,0,0,0,1.856.076c3.922.018,6.051-1.974,6.051-5.427.021-3.056-1.877-4.934-5.756-4.934a11.643,11.643,0,0,0-2.151.17Z" transform="translate(-255.082 -963.292)" fill="#fff"/>
      <path id="Path_3535" data-name="Path 3535" d="M288.956,981.042a4.61,4.61,0,0,1-4.892-4.725,4.738,4.738,0,0,1,5.06-4.877,4.573,4.573,0,0,1,4.913,4.706,4.755,4.755,0,0,1-5.06,4.9Zm.063-1.253c1.771,0,3.1-1.5,3.1-3.587,0-1.556-.865-3.511-3.057-3.511-2.172,0-3.121,1.822-3.121,3.568,0,2.011,1.265,3.53,3.058,3.53Z" transform="translate(-270.676 -967.36)" fill="#fff"/>
      <path id="Path_3536" data-name="Path 3536" d="M309.8,971.891l1.371,4.65c.273,1.025.548,1.992.738,2.941h.063c.232-.93.569-1.917.907-2.922l1.666-4.669H316.1l1.582,4.592c.379,1.082.674,2.069.906,3h.063a25.407,25.407,0,0,1,.78-2.979l1.454-4.611h1.835l-3.289,9.184h-1.687l-1.56-4.383a30.09,30.09,0,0,1-.908-3.036h-.042a25.232,25.232,0,0,1-.928,3.055l-1.644,4.364h-1.687l-3.079-9.184Z" transform="translate(-283.502 -967.602)" fill="#fff"/>
      <path id="Path_3537" data-name="Path 3537" d="M343.913,974.134c0-.968-.021-1.727-.085-2.486h1.645l.1,1.5h.042a3.865,3.865,0,0,1,3.374-1.708c1.413,0,3.605.758,3.605,3.909v5.484h-1.854v-5.294c0-1.48-.613-2.732-2.363-2.732a2.647,2.647,0,0,0-2.488,1.708,2.249,2.249,0,0,0-.127.778v5.541h-1.855Z" transform="translate(-302.833 -967.36)" fill="#fff"/>
      <path id="Path_3538" data-name="Path 3538" d="M369.346,962.607H371.2V976.08h-1.856Z" transform="translate(-316.564 -962.607)" fill="#fff"/>
      <path id="Path_3539" data-name="Path 3539" d="M383.323,981.042a4.61,4.61,0,0,1-4.891-4.725,4.737,4.737,0,0,1,5.06-4.877,4.573,4.573,0,0,1,4.912,4.706,4.755,4.755,0,0,1-5.06,4.9Zm.062-1.253c1.772,0,3.1-1.5,3.1-3.587,0-1.556-.865-3.511-3.057-3.511-2.172,0-3.122,1.822-3.122,3.568,0,2.011,1.265,3.53,3.058,3.53Z" transform="translate(-321.452 -967.36)" fill="#fff"/>
      <path id="Path_3540" data-name="Path 3540" d="M411.348,978.632a13.84,13.84,0,0,0,.148,2.2H409.83l-.169-1.157H409.6a3.924,3.924,0,0,1-3.121,1.366c-2.066,0-3.121-1.309-3.121-2.638,0-2.22,2.192-3.435,6.135-3.416V974.8c0-.759-.231-2.144-2.319-2.125a5.326,5.326,0,0,0-2.678.683l-.422-1.119a7.185,7.185,0,0,1,3.374-.8c3.142,0,3.9,1.916,3.9,3.757Zm-1.813-2.486c-2.024-.038-4.323.285-4.323,2.068a1.551,1.551,0,0,0,1.729,1.595,2.573,2.573,0,0,0,2.509-1.538,1.533,1.533,0,0,0,.085-.531Z" transform="translate(-334.864 -967.36)" fill="#fff"/>
      <path id="Path_3541" data-name="Path 3541" d="M435.048,962.607v11.1c0,.816.023,1.746.085,2.372h-1.665l-.084-1.594h-.042a3.818,3.818,0,0,1-3.458,1.8,4.38,4.38,0,0,1-4.387-4.669,4.579,4.579,0,0,1,4.575-4.933,3.51,3.51,0,0,1,3.08,1.385h.042v-5.466Zm-1.855,8.027a2.777,2.777,0,0,0-.085-.72A2.682,2.682,0,0,0,430.431,968c-1.919,0-3.058,1.518-3.058,3.53,0,1.878,1.034,3.415,3.015,3.415a2.761,2.761,0,0,0,2.72-1.992,2.6,2.6,0,0,0,.085-.721Z" transform="translate(-346.776 -962.607)" fill="#fff"/>
      <path id="Path_3542" data-name="Path 3542" d="M465.812,981.042a4.61,4.61,0,0,1-4.892-4.725,4.738,4.738,0,0,1,5.06-4.877,4.573,4.573,0,0,1,4.914,4.706,4.755,4.755,0,0,1-5.06,4.9Zm.064-1.253c1.771,0,3.1-1.5,3.1-3.587,0-1.556-.863-3.511-3.057-3.511-2.172,0-3.121,1.822-3.121,3.568,0,2.011,1.265,3.53,3.057,3.53Z" transform="translate(-365.837 -967.36)" fill="#fff"/>
      <path id="Path_3543" data-name="Path 3543" d="M487.483,974.134c0-.968-.022-1.727-.085-2.486h1.645l.106,1.5h.042a3.865,3.865,0,0,1,3.374-1.708c1.413,0,3.606.758,3.606,3.909v5.484h-1.856v-5.294c0-1.48-.611-2.732-2.362-2.732a2.65,2.65,0,0,0-2.488,1.708,2.261,2.261,0,0,0-.126.778v5.541h-1.855Z" transform="translate(-380.084 -967.36)" fill="#fff"/>
      <path id="Path_3544" data-name="Path 3544" d="M523.479,967.127v2.2h2.656V970.6h-2.656v4.953c0,1.138.359,1.784,1.392,1.784a3.819,3.819,0,0,0,1.075-.114l.084,1.271a5.579,5.579,0,0,1-1.645.228,2.81,2.81,0,0,1-2-.7,3.334,3.334,0,0,1-.716-2.411V970.6h-1.582v-1.271h1.582v-1.689Z" transform="translate(-397.671 -965.039)" fill="#fff"/>
      <path id="Path_3545" data-name="Path 3545" d="M537.7,962.607h1.855v5.731h.043a3.149,3.149,0,0,1,1.329-1.177,3.916,3.916,0,0,1,1.9-.474c1.37,0,3.563.759,3.563,3.928v5.465h-1.855V970.8c0-1.5-.612-2.732-2.362-2.732a2.667,2.667,0,0,0-2.488,1.67,1.837,1.837,0,0,0-.127.8v5.541H537.7Z" transform="translate(-407.152 -962.607)" fill="#fff"/>
      <path id="Path_3546" data-name="Path 3546" d="M563.235,976.5c.043,2.259,1.625,3.189,3.48,3.189a7.74,7.74,0,0,0,2.827-.456l.337,1.177a9.126,9.126,0,0,1-3.417.589c-3.122,0-5.019-1.879-5.019-4.63a4.676,4.676,0,0,1,4.807-4.972,4.02,4.02,0,0,1,4.2,4.327,3.857,3.857,0,0,1-.062.8Zm5.421-1.2a2.464,2.464,0,0,0-2.553-2.714,2.889,2.889,0,0,0-2.846,2.714Z" transform="translate(-419.925 -967.337)" fill="#fff"/>
    </g>
  </g>
</svg>
