<?xml version="1.0" encoding="utf-8"?>
<!-- Generator: Adobe Illustrator 23.0.1, SVG Export Plug-In . SVG Version: 6.00 Build 0)  -->
<svg version="1.1" xmlns="http://www.w3.org/2000/svg" xmlns:xlink="http://www.w3.org/1999/xlink" x="0px" y="0px"
	 viewBox="0 0 549.1 202.1" style="enable-background:new 0 0 549.1 202.1;" xml:space="preserve">
<style type="text/css">
	.st0{fill:#FFFFFF;}
	.st1{clip-path:url(#SVGID_2_);}
	.st2{fill:#081828;}
	.st3{fill:#F2B8D0;}
	.st4{fill:#E0D3CE;}
	.st5{fill:#E829A3;}
	.st6{clip-path:url(#SVGID_4_);}
	.st7{fill:#BE1FC9;}
	.st8{clip-path:url(#SVGID_6_);}
	.st9{fill:#FFFFFF;stroke:#28272D;stroke-width:2;stroke-miterlimit:10;}
	.st10{clip-path:url(#SVGID_8_);}
	.st11{fill:#000201;}
	.st12{fill:#D5887A;}
</style>
<g id="circle4">
	<g id="Group_206_1_" transform="translate(0 8.36)">
		<circle id="Ellipse_22_1_" class="st0" cx="73.3" cy="84.1" r="42.1"/>
		<g id="Group_205_1_" transform="translate(2.364 4.309)">
			<g id="Group_6683_1_">
				<g>
					<defs>
						<circle id="SVGID_1_" cx="70.9" cy="81.7" r="39.7"/>
					</defs>
					<clipPath id="SVGID_2_">
						<use xlink:href="#SVGID_1_"  style="overflow:visible;"/>
					</clipPath>
					<g id="Group_6682_1_" class="st1">
						<g id="Group_204_1_" transform="translate(14.674 6.9)">
							<g id="Group_203_1_">
								<g id="Group_201_1_">
									<path id="Path_168_1_" class="st2" d="M62.8,42.1c1.2-0.1,2.3,0,3.5,0.1C72.3,43,77,47.5,78,53.4c1,6.4-1.8,12.8-2.9,19
										c-1.1,7.8-1.4,15.6-0.8,23.4c-1.7,0.2-18.3-4.2-18.6-5.1c-0.7-3.2-0.3-6.5,1-9.5c1.2-2.6,2.8-4.9,4.8-6.9
										c1.5-1.3,2.6-3.1,3-5.1c0.1-1,0.1-2.1-0.1-3.1c-1.2-8.3-2.9-18.5-9.6-18.9c-0.7,0-2.5,0-2.2-1.2c0.2-0.6,0.7-1,1.2-1.2
										C56.6,43.3,59.6,42.4,62.8,42.1z"/>
									<g id="Group_198_1_" transform="translate(8.188 4.297)">
										<path id="Path_169_1_" class="st2" d="M51,74.5l-9-1.1c-2,0-5.6-0.9-5.6-2.6L31.2,55c0-7.1,6.8-12.9,15.3-12.9
											S61.8,47.8,61.8,55l-7.2,18c0,1.7-0.1,0.4-2.1,0.4L51,74.5z"/>
									</g>
									<g id="Group_200_1_" transform="translate(7.193 23.509)">
										<g id="Group_199_1_">
											<path id="Path_170_1_" class="st3" d="M60.6,48.4c1.8,0,3.2-1.4,3.2-3.2c0-1.8-1.4-3.2-3.2-3.2h-2.1v6.4H60.6z"/>
											<path id="Path_171_1_" class="st3" d="M34.4,48.4c-1.8,0-3.2-1.4-3.2-3.2c0-1.8,1.4-3.2,3.2-3.2h2.1v6.4H34.4z"/>
										</g>
									</g>
									<path id="Path_172_1_" class="st4" d="M78.7,114.3h-4.8l-3.4-17.5c-0.6-3.4-2.8-6.3-5.9-7.8l4.1,1.3
										c3.5,1.1,6.2,4.1,6.9,7.8L78.7,114.3z"/>
									<path id="Path_173_1_" class="st3" d="M62.8,88.4c-0.3,4.5-4.2,7.8-8.6,7.6c-4.1-0.3-7.3-3.5-7.6-7.6l8.1-2.6L62.8,88.4z"
										/>
									<path id="Path_174_1_" class="st3" d="M50.2,78.8h9v11h-9V78.8z"/>
									<path id="Path_175_1_" class="st3" d="M54.7,54.2c-6.6,0-11.9,5.3-11.9,11.9v5.2c0.1,6.6,5.4,11.9,12,11.8
										c6.5-0.1,11.8-5.3,11.8-11.8v-5.2C66.6,59.6,61.3,54.2,54.7,54.2L54.7,54.2z"/>
									<path id="Path_176_1_" class="st5" d="M78.9,114.3l-3.1-16.2c-0.7-3.6-3.3-6.6-6.9-7.8L61.8,88c-0.3,3.8-3.7,6.7-7.5,6.3
										c-3.4-0.3-6-3-6.3-6.3l-7.1,2.3c-3.5,1.1-6.2,4.1-6.9,7.8l-2.7,14.3c-0.2,0.9,0.4,1.7,1.3,1.9c0.1,0,0.2,0,0.3,0
										L78.9,114.3L78.9,114.3z"/>
									<path id="Path_177_1_" class="st2" d="M55.1,52v5.7c0,5.1-4.2,9.3-9.3,9.3l0,0h-4.7c-2.3,0-4.2-1.9-4.2-4.2c0,0,0,0,0,0
										c0-0.2,0-0.4,0-0.6c0.1-0.4,0.4-0.7,0.8-0.7h3.8C43.4,55.7,48.9,51.8,55.1,52z"/>
								</g>
								<g id="Group_202_1_" transform="translate(29.184 59.612)">
									<path id="Path_178_1_" class="st0" d="M38.9,46.3c1-1,1-2.5,0-3.5c-0.8-0.8-2.1-1-3.1-0.3c-0.3,0.2-0.6,0.2-0.9,0
										c-1.2-0.7-2.7-0.4-3.4,0.8c-0.6,1-0.5,2.2,0.3,3l3.2,3.2c0.2,0.2,0.5,0.2,0.7,0L38.9,46.3z"/>
								</g>
							</g>
						</g>
					</g>
				</g>
			</g>
		</g>
	</g>
</g>
<g id="circle3">
	<g id="Group_187_1_" transform="translate(439.644 92.667)">
		<path id="Ellipse_18_1_" class="st0" d="M6.2-13.3C36.5-13.3,61,11.2,61,41.4S36.5,96.2,6.2,96.2s-54.7-24.5-54.7-54.7
			S-24-13.3,6.2-13.3C6.2-13.3,6.2-13.3,6.2-13.3z"/>
		<g id="Group_186_1_" transform="translate(0)">
			<g id="Group_6679_1_">
				<g>
					<defs>
						<circle id="SVGID_3_" cx="6.2" cy="41.4" r="54.7"/>
					</defs>
					<clipPath id="SVGID_4_">
						<use xlink:href="#SVGID_3_"  style="overflow:visible;"/>
					</clipPath>
					<g id="Group_6678_1_" class="st6">
						<g id="Group_185_1_" transform="translate(21.452 22.093)">
							<g id="Group_184_1_">
								<path id="Path_147_1_" class="st5" d="M-34-0.1H4.1v14.8H-34V-0.1z"/>
								<path id="Path_148_1_" class="st7" d="M15.8,79.1h-64.3l4.3-22.7c1-5.1,4.6-9.2,9.6-10.8l9.9-3.2c0.5,5.3,5.2,9.3,10.5,8.8
									c4.7-0.4,8.4-4.1,8.8-8.8l9.9,3.2c4.9,1.6,8.6,5.7,9.6,10.8l3.8,20c0.2,1.2-0.6,2.4-1.8,2.6c0,0,0,0,0,0
									C16.1,79.1,16,79.1,15.8,79.1z"/>
								<path id="Path_149_1_" class="st3" d="M-3.7,42.9c-0.5,6.2-5.9,10.9-12.1,10.5c-5.6-0.4-10.1-4.9-10.5-10.5l11.3-3.6
									L-3.7,42.9z"/>
								<path id="Path_150_1_" class="st3" d="M-21.2,29.5h12.6v15.4h-12.6V29.5z"/>
								<g id="Group_182_1_" transform="translate(10.861 24.303)">
									<g id="Group_181_1_">
										<path id="Path_151_1_" class="st3" d="M-7.5-4.4c2.5,0,4.5-1.9,4.5-4.4c0-2.5-1.9-4.5-4.4-4.5h-3.1v8.9H-7.5z"/>
										<path id="Path_152_1_" class="st3" d="M-44.1-4.4c-2.5,0-4.4-2-4.4-4.5c0-2.5,2-4.4,4.4-4.4l0,0h2.9v8.9H-44.1z"/>
									</g>
								</g>
								<path id="Path_153_1_" class="st3" d="M1.7,11v8.1c-0.2,9.2-7.8,16.5-17,16.3c-8.9-0.2-16.2-7.4-16.3-16.3V11l1.6-1.3
									c0.7-0.5,1-1.3,1-2.1v-7.8h28v7.8c0,0.8,0.4,1.6,1,2.1L1.7,11z"/>
								<path id="Path_154_1_" class="st5" d="M-34-2.5V0c0,1.4,1.2,2.6,2.6,2.6H-1c3.9,0,7.1-3.2,7.1-7.1l0,0V-11
									c0-1.2-1-2.3-2.3-2.3c-0.2,0-0.3,0-0.5,0.1c-3.7,0.8-7.5,1-11.2,0.6c-5.7-0.4-11.4-0.4-17.1,0.1C-30.1-12-34-7.6-34-2.5z"/>
								<g id="Group_183_1_" transform="translate(38.102 72.799)">
									<path id="Path_155_1_" class="st0" d="M-38.1-7.6c1.3-1.3,1.3-3.4,0-4.7c-1.1-1.1-2.8-1.3-4.1-0.5c-0.4,0.2-0.8,0.2-1.2,0
										c-1.6-1-3.6-0.5-4.6,1.1c-0.8,1.3-0.6,3,0.5,4.1l4.3,4.3c0.3,0.3,0.7,0.3,0.9,0l0,0L-38.1-7.6z"/>
								</g>
							</g>
						</g>
					</g>
				</g>
			</g>
		</g>
	</g>
</g>
<g id="circle2">
	<g id="Layer_8">
		<g id="Group_180" transform="translate(218.399 118.798)">
			<ellipse id="Ellipse_16" class="st0" cx="-2.8" cy="34.4" rx="28.7" ry="28.7"/>
			<g id="Group_179" transform="translate(0.509)">
				<g id="Group_6677">
					<g>
						<defs>
							<circle id="SVGID_5_" cx="-3.2" cy="34" r="28.3"/>
						</defs>
						<clipPath id="SVGID_6_">
							<use xlink:href="#SVGID_5_"  style="overflow:visible;"/>
						</clipPath>
						<g id="Group_6676" class="st8">
							<g id="Group_178" transform="translate(11.433 10.172)">
								<g id="Group_177">
									<g id="Group_173" transform="translate(5.991)">
										<path id="Path_136" class="st5" d="M-12.3,33.2H-29c-1.4,0-2.6-1.2-2.6-2.6l0,0v-14c0-6,4.9-10.9,11-10.9
											c6,0,10.9,4.9,10.9,10.9v14C-9.7,32-10.9,33.2-12.3,33.2L-12.3,33.2L-12.3,33.2z"/>
										<path id="Path_137" class="st5" d="M-9.7,16.6v14c0,1.4-1.2,2.6-2.6,2.6h-2.9c1.4,0,2.6-1.2,2.6-2.6c0,0,0,0,0,0l0,0v-14
											c0-5.5-4-10.1-9.5-10.8c0.5-0.1,1-0.1,1.5-0.1C-14.6,5.7-9.7,10.5-9.7,16.6C-9.7,16.6-9.7,16.6-9.7,16.6L-9.7,16.6
											L-9.7,16.6z"/>
									</g>
									<g id="Group_175" transform="translate(5.28 13.755)">
										<g id="Group_174">
											<path id="Path_138" class="st3" d="M-10.6,10.2c1.3,0,2.3-1,2.3-2.3c0-1.3-1-2.3-2.3-2.3h-1.5v4.6H-10.6z"/>
											<path id="Path_139" class="st3" d="M-29.3,10.2c-1.3,0-2.3-1-2.3-2.3c0-1.3,1-2.3,2.3-2.3l0,0h1.5v4.6H-29.3z"/>
										</g>
									</g>
									<path id="Path_140" class="st4" d="M2.5,54.3h-3.4l-2.4-12.6c-0.5-2.4-2-4.5-4.2-5.6l2.9,0.9c2.5,0.8,4.4,2.9,4.9,5.5
										L2.5,54.3z"/>
									<path id="Path_141" class="st3" d="M-8.9,35.8c-0.2,3.2-3,5.6-6.2,5.4c-2.9-0.2-5.2-2.5-5.4-5.4l5.8-1.9L-8.9,35.8z"/>
									<path id="Path_142" class="st3" d="M-17.9,28.9h6.4v7.9h-6.4V28.9z"/>
									<path id="Path_143" class="st3" d="M-14.7,11.3c-4.7,0-8.5,3.8-8.5,8.5v3.7c0.1,4.7,3.9,8.5,8.6,8.4
										c4.6-0.1,8.4-3.8,8.4-8.4v-3.7C-6.1,15.1-9.9,11.3-14.7,11.3L-14.7,11.3z"/>
									<path id="Path_144" class="st9" d="M2.5,54.3L0.3,42.7c-0.5-2.6-2.4-4.7-4.9-5.5l-5.1-1.6c-0.2,2.7-2.6,4.8-5.4,4.5
										c-2.4-0.2-4.3-2.1-4.5-4.5l-5.1,1.6c-2.5,0.8-4.4,2.9-4.9,5.5l-2,10.2c-0.1,0.6,0.3,1.2,0.9,1.4c0.1,0,0.1,0,0.2,0H2.5z"/>
									<path id="Path_145" class="st5" d="M-14.4,9.7v4.1c0,3.7-3,6.7-6.7,6.7l0,0h-3.4c-1.7,0-3-1.3-3-3l0,0c0-0.1,0-0.3,0-0.4
										c0-0.3,0.3-0.5,0.6-0.5h2.7C-22.8,12.3-18.8,9.5-14.4,9.7z"/>
									<g id="Group_176" transform="translate(21.013 39.231)">
										<path id="Path_146" class="st9" d="M-27,8.1c0.6-0.6,0.6-1.5,0-2.1c-0.5-0.5-1.2-0.6-1.8-0.2C-29,6-29.2,6-29.3,5.9
											c-0.7-0.4-1.6-0.2-2,0.5c-0.4,0.6-0.3,1.3,0.2,1.8l1.9,1.9c0.1,0.1,0.3,0.1,0.4,0c0,0,0,0,0,0L-27,8.1z"/>
									</g>
								</g>
							</g>
						</g>
					</g>
				</g>
			</g>
		</g>
	</g>
</g>
<g id="circle1">
	<g id="Group_197" transform="translate(310.405)">
		<path id="Path_179" class="st0" d="M29.7,33.1c16.9,0,30.6,13.7,30.6,30.6S46.6,94.4,29.7,94.4S-0.9,80.7-0.9,63.8l0,0l0,0
			C-0.9,46.8,12.8,33.1,29.7,33.1z"/>
		<g id="Group_196" transform="translate(0)">
			<g id="Group_6681">
				<g>
					<defs>
						<circle id="SVGID_7_" cx="29.7" cy="63.3" r="30.6"/>
					</defs>
					<clipPath id="SVGID_8_">
						<use xlink:href="#SVGID_7_"  style="overflow:visible;"/>
					</clipPath>
					<g id="Group_6680" class="st10">
						<g id="Group_195" transform="translate(14.138 17.824)">
							<g id="Group_194">
								<g id="Group_192" transform="translate(0 6.228)">
									<path id="Path_156" class="st9" d="M29.4,71.4H-0.9l2-10.7c0.5-2.4,2.2-4.4,4.5-5.1l4.7-1.5c0.2,2.5,2.4,4.4,5,4.2
										c2.2-0.2,4-1.9,4.2-4.2l4.7,1.5c2.3,0.7,4.1,2.7,4.5,5.1l1.8,9.4c0.1,0.6-0.3,1.1-0.8,1.2C29.5,71.4,29.5,71.4,29.4,71.4
										L29.4,71.4z"/>
									<g id="Group_190" transform="translate(5.209)">
										<g id="Group_189">
											<path id="Path_157" class="st3" d="M15,54.3c-0.2,2.9-2.8,5.2-5.7,4.9c-2.6-0.2-4.8-2.3-4.9-4.9l5.3-1.7L15,54.3z"/>
											<path id="Path_158" class="st3" d="M6.7,48h5.9v7.3H6.7V48z"/>
											<g id="Group_188" transform="translate(0 6.593)">
												<path id="Path_159" class="st3" d="M18.3,36.9c1.2,0,2.1-1,2.1-2.1c0-1.2-0.9-2.1-2.1-2.1h-1.4v4.2H18.3z"/>
												<path id="Path_160" class="st3" d="M1,36.9c-1.2,0-2.1-1-2.1-2.1c0-1.2,0.9-2.1,2.1-2.1h1.4v4.2H1z"/>
											</g>
											<path id="Path_161" class="st3" d="M17.5,39.3v3.8c0,4.3-3.5,7.9-7.9,7.9s-7.9-3.5-7.9-7.9v-3.8l0.8-0.6
												c0.3-0.2,0.5-0.6,0.5-1V34c4.2-1.8,9-1.8,13.2,0v3.7c0,0.4,0.2,0.8,0.5,1L17.5,39.3z"/>
										</g>
									</g>
									<g id="Group_191" transform="translate(17.959 29.454)">
										<path id="Path_162" class="st9" d="M4,35.4c0.6-0.6,0.6-1.6,0-2.2c-0.5-0.5-1.3-0.6-2-0.2c-0.2,0.1-0.4,0.1-0.6,0
											c-0.7-0.5-1.7-0.2-2.2,0.5c-0.4,0.6-0.3,1.4,0.2,2l2,2c0.1,0.1,0.3,0.1,0.4,0c0,0,0,0,0,0l0,0L4,35.4z"/>
									</g>
								</g>
								<g id="Group_193" transform="translate(3.729)">
									<path id="Path_163" class="st11" d="M2.5,36c0,0-4-0.6-3.3,4c0.5,2.8,2.4,5.2,5.1,6.1l0.4-9.5L2.5,36z"/>
									<path id="Path_164" class="st11" d="M4.3,46.2L4.3,46.2c0.2-1.4,1.6-4.7,3.2-5.9c2.8-2.1,5.7-1.7,10.4,1
										c-0.7-3.2-3.5-5.6-6.7-6C5.2,34.3,1,39.4,1.1,41.9S4.3,46.2,4.3,46.2z"/>
									<path id="Path_165" class="st11" d="M7.1,40.5c1.7-1.6,4.3-1.6,6,0c2.6,2.1,6.3,3.2,8.1-0.1s-0.3-8.2-7.5-5.8
										S7.1,40.5,7.1,40.5z"/>
									<path id="Path_166" class="st11" d="M14.4,34.4c-1.7,0.7-3.6,0.3-5-0.8c-2.4-2-7.2-0.7-6.9,2.4l5.1,1.6l9.4-0.4L14.4,34.4z
										"/>
								</g>
								<path id="Path_167" class="st12" d="M26.8,41"/>
							</g>
						</g>
					</g>
				</g>
			</g>
		</g>
	</g>
</g>
</svg>
