<?xml version="1.0" encoding="utf-8"?>
<!-- Generator: Adobe Illustrator 23.0.1, SVG Export Plug-In . SVG Version: 6.00 Build 0)  -->
<svg version="1.1" xmlns="http://www.w3.org/2000/svg" xmlns:xlink="http://www.w3.org/1999/xlink" x="0px" y="0px"
	 viewBox="0 0 549.1 202.1" style="enable-background:new 0 0 549.1 202.1;" xml:space="preserve">
<style type="text/css">
	.st0{fill:#FFFFFF;}
	.st1{clip-path:url(#SVGID_2_);}
	.st2{fill:#E829A3;}
	.st3{fill:#BE1FC9;}
	.st4{fill:#F2B8D0;}
	.st5{clip-path:url(#SVGID_4_);}
	.st6{fill:#FFFFFF;stroke:#28272D;stroke-miterlimit:10;}
	.st7{fill:#000201;}
	.st8{fill:#D5887A;}
	.st9{fill:#EBF3FF;}
	.st10{clip-path:url(#SVGID_6_);}
	.st11{fill:#081828;}
	.st12{fill:#E0D3CE;}
	.st13{clip-path:url(#SVGID_8_);}
</style>
<g id="avatar4">
	<g id="Group_187" transform="translate(439.644 92.667)">
		<path id="Ellipse_18" class="st0" d="M54.7,0c30.2,0,54.7,24.5,54.7,54.7S85,109.5,54.7,109.5S0,85,0,54.7C0,24.5,24.5,0,54.7,0
			C54.7,0,54.7,0,54.7,0z"/>
		<g id="Group_186" transform="translate(0)">
			<g id="Group_6679">
				<g>
					<defs>
						<circle id="SVGID_1_" cx="54.7" cy="54.7" r="54.7"/>
					</defs>
					<clipPath id="SVGID_2_">
						<use xlink:href="#SVGID_1_"  style="overflow:visible;"/>
					</clipPath>
					<g id="Group_6678" class="st1">
						<g id="Group_185" transform="translate(21.452 22.093)">
							<g id="Group_184">
								<path id="Path_147" class="st2" d="M14.5,13.1h38.1v14.8H14.5V13.1z"/>
								<path id="Path_148" class="st3" d="M64.3,92.4H0l4.3-22.7c1-5.1,4.6-9.2,9.6-10.8l9.9-3.2C24.3,61,29,65,34.4,64.5
									c4.7-0.4,8.4-4.1,8.8-8.8l9.9,3.2c4.9,1.6,8.6,5.7,9.6,10.8l3.8,20c0.2,1.2-0.6,2.4-1.8,2.6c0,0,0,0,0,0
									C64.6,92.4,64.4,92.4,64.3,92.4z"/>
								<path id="Path_149" class="st4" d="M44.8,56.2c-0.5,6.2-5.9,10.9-12.1,10.5c-5.6-0.4-10.1-4.9-10.5-10.5l11.3-3.6L44.8,56.2
									z"/>
								<path id="Path_150" class="st4" d="M27.2,42.8h12.6v15.4H27.2V42.8z"/>
								<g id="Group_182" transform="translate(10.861 24.303)">
									<g id="Group_181">
										<path id="Path_151" class="st4" d="M40.9,8.9c2.5,0,4.5-1.9,4.5-4.4c0-2.5-1.9-4.5-4.4-4.5H38v8.9H40.9z"/>
										<path id="Path_152" class="st4" d="M4.4,8.9c-2.5,0-4.4-2-4.4-4.5C-0.1,2,1.9,0,4.4,0l0,0h2.9v8.9H4.4z"/>
									</g>
								</g>
								<path id="Path_153" class="st4" d="M50.2,24.3v8.1c-0.2,9.2-7.8,16.5-17,16.3c-8.9-0.2-16.2-7.4-16.3-16.3v-8.1l1.6-1.3
									c0.7-0.5,1-1.3,1-2.1v-7.8h28v7.8c0,0.8,0.4,1.6,1,2.1L50.2,24.3z"/>
								<path id="Path_154" class="st2" d="M14.5,10.8v2.5c0,1.4,1.2,2.6,2.6,2.6h30.5c3.9,0,7.1-3.2,7.1-7.1l0,0V2.3
									c0-1.2-1-2.3-2.3-2.3c-0.2,0-0.3,0-0.5,0.1c-3.7,0.8-7.5,1-11.2,0.6C35,0.2,29.2,0.3,23.6,0.8C18.4,1.3,14.5,5.6,14.5,10.8z
									"/>
								<g id="Group_183" transform="translate(38.102 72.799)">
									<path id="Path_155" class="st0" d="M10.4,5.7c1.3-1.3,1.3-3.4,0-4.7C9.3-0.1,7.6-0.3,6.3,0.5c-0.4,0.2-0.8,0.2-1.2,0
										C3.5-0.5,1.5,0,0.5,1.6c-0.8,1.3-0.6,3,0.5,4.1L5.2,10c0.3,0.3,0.7,0.3,0.9,0l0,0L10.4,5.7z"/>
								</g>
							</g>
						</g>
					</g>
				</g>
			</g>
		</g>
	</g>
</g>
<g id="avatar3">
	<g id="Group_197" transform="translate(310.405)">
		<path id="Path_179" class="st0" d="M30.6,0.5c16.9,0,30.6,13.7,30.6,30.6S47.6,61.8,30.6,61.8S0,48,0,31.1l0,0l0,0
			C0,14.2,13.7,0.5,30.6,0.5z"/>
		<g id="Group_196" transform="translate(0)">
			<g id="Group_6681">
				<g>
					<defs>
						<circle id="SVGID_3_" cx="30.6" cy="30.6" r="30.6"/>
					</defs>
					<clipPath id="SVGID_4_">
						<use xlink:href="#SVGID_3_"  style="overflow:visible;"/>
					</clipPath>
					<g id="Group_6680" class="st5">
						<g id="Group_195" transform="translate(14.138 17.824)">
							<g id="Group_194">
								<g id="Group_192" transform="translate(0 6.228)">
									<path id="Path_156" class="st6" d="M30.3,38.7H0l2-10.7c0.5-2.4,2.2-4.4,4.5-5.1l4.7-1.5c0.2,2.5,2.4,4.4,5,4.2
										c2.2-0.2,4-1.9,4.2-4.2l4.7,1.5c2.3,0.7,4.1,2.7,4.5,5.1l1.8,9.4c0.1,0.6-0.3,1.1-0.8,1.2C30.5,38.7,30.4,38.7,30.3,38.7
										L30.3,38.7z"/>
									<g id="Group_190" transform="translate(5.209)">
										<g id="Group_189">
											<path id="Path_157" class="st4" d="M15.9,21.6c-0.2,2.9-2.8,5.2-5.7,4.9c-2.6-0.2-4.8-2.3-4.9-4.9l5.3-1.7L15.9,21.6z"/>
											<path id="Path_158" class="st4" d="M7.6,15.3h5.9v7.3H7.6V15.3z"/>
											<g id="Group_188" transform="translate(0 6.593)">
												<path id="Path_159" class="st4" d="M19.2,4.2c1.2,0,2.1-1,2.1-2.1c0-1.2-0.9-2.1-2.1-2.1h-1.4v4.2H19.2z"/>
												<path id="Path_160" class="st4" d="M2,4.2c-1.2,0-2.1-1-2.1-2.1C-0.1,0.9,0.8,0,2,0h1.4v4.2H2z"/>
											</g>
											<path id="Path_161" class="st4" d="M18.4,6.6v3.8c0,4.3-3.5,7.9-7.9,7.9s-7.9-3.5-7.9-7.9V6.6L3.5,6C3.8,5.8,4,5.4,4,5
												V1.3c4.2-1.8,9-1.8,13.2,0V5c0,0.4,0.2,0.8,0.5,1L18.4,6.6z"/>
										</g>
									</g>
									<g id="Group_191" transform="translate(17.959 29.454)">
										<path id="Path_162" class="st6" d="M4.9,2.7c0.6-0.6,0.6-1.6,0-2.2C4.4-0.1,3.6-0.2,3,0.2c-0.2,0.1-0.4,0.1-0.6,0
											C1.7-0.2,0.7,0,0.2,0.7c-0.4,0.6-0.3,1.4,0.2,2l2,2c0.1,0.1,0.3,0.1,0.4,0c0,0,0,0,0,0l0,0L4.9,2.7z"/>
									</g>
								</g>
								<g id="Group_193" transform="translate(3.729)">
									<path id="Path_163" class="st7" d="M3.4,3.3c0,0-4-0.6-3.3,4c0.5,2.8,2.4,5.2,5.1,6.1L5.6,4L3.4,3.3z"/>
									<path id="Path_164" class="st7" d="M5.2,13.5L5.2,13.5c0.2-1.4,1.6-4.7,3.2-5.9c2.8-2.1,5.7-1.7,10.4,1
										c-0.7-3.2-3.5-5.6-6.7-6C6.2,1.7,2,6.7,2,9.2C2,11.8,5.2,13.5,5.2,13.5z"/>
									<path id="Path_165" class="st7" d="M8.1,7.9c1.7-1.6,4.3-1.6,6,0c2.6,2.1,6.3,3.2,8.1-0.1s-0.3-8.2-7.5-5.8
										S8.1,7.9,8.1,7.9z"/>
									<path id="Path_166" class="st7" d="M15.4,1.7c-1.7,0.7-3.6,0.3-5-0.8C8-1,3.2,0.2,3.4,3.3l5.1,1.6l9.4-0.4L15.4,1.7z"/>
								</g>
								<path id="Path_167" class="st8" d="M27.8,8.4"/>
							</g>
						</g>
					</g>
				</g>
			</g>
		</g>
	</g>
</g>
<g id="avatar1">
	<g id="Group_206" transform="translate(0 8.36)">
		<circle id="Ellipse_22" class="st9" cx="42.1" cy="42.1" r="42.1"/>
		<g id="Group_205" transform="translate(2.364 4.309)">
			<g id="Group_6683">
				<g>
					<defs>
						<circle id="SVGID_5_" cx="39.7" cy="39.7" r="39.7"/>
					</defs>
					<clipPath id="SVGID_6_">
						<use xlink:href="#SVGID_5_"  style="overflow:visible;"/>
					</clipPath>
					<g id="Group_6682" class="st10">
						<g id="Group_204" transform="translate(14.674 6.9)">
							<g id="Group_203">
								<g id="Group_201">
									<path id="Path_168" class="st11" d="M31.6,0c1.2-0.1,2.3,0,3.5,0.1C41,0.9,45.8,5.5,46.7,11.4c1,6.4-1.8,12.8-2.9,19
										C42.7,38.2,42.4,46,43,53.9c-1.7,0.2-18.3-4.2-18.6-5.1c-0.7-3.2-0.3-6.5,1-9.5c1.2-2.6,2.8-4.9,4.8-6.9
										c1.5-1.3,2.6-3.1,3-5.1c0.1-1,0.1-2.1-0.1-3.1c-1.2-8.3-2.9-18.5-9.6-18.9c-0.7,0-2.5,0-2.2-1.2c0.2-0.6,0.7-1,1.2-1.2
										C25.3,1.3,28.4,0.3,31.6,0z"/>
									<g id="Group_198" transform="translate(8.188 4.297)">
										<path id="Path_169" class="st11" d="M19.8,32.4l-9-1.1c-2,0-5.6-0.9-5.6-2.6L0,12.9C0,5.8,6.8,0,15.3,0
											s15.3,5.8,15.3,12.9l-7.2,18c0,1.7-0.1,0.4-2.1,0.4L19.8,32.4z"/>
									</g>
									<g id="Group_200" transform="translate(7.193 23.509)">
										<g id="Group_199">
											<path id="Path_170" class="st4" d="M29.4,6.4c1.8,0,3.2-1.4,3.2-3.2c0-1.8-1.4-3.2-3.2-3.2h-2.1v6.4H29.4z"/>
											<path id="Path_171" class="st4" d="M3.2,6.4C1.4,6.4,0,4.9,0,3.2C0,1.4,1.4,0,3.2,0h2.1v6.4H3.2z"/>
										</g>
									</g>
									<path id="Path_172" class="st12" d="M47.5,72.3h-4.8l-3.4-17.5c-0.6-3.4-2.8-6.3-5.9-7.8l4.1,1.3c3.5,1.1,6.2,4.1,6.9,7.8
										L47.5,72.3z"/>
									<path id="Path_173" class="st4" d="M31.6,46.4c-0.3,4.5-4.2,7.8-8.6,7.6c-4.1-0.3-7.3-3.5-7.6-7.6l8.1-2.6L31.6,46.4z"/>
									<path id="Path_174" class="st4" d="M19,36.7h9v11h-9V36.7z"/>
									<path id="Path_175" class="st4" d="M23.5,12.2c-6.6,0-11.9,5.3-11.9,11.9v5.2c0.1,6.6,5.4,11.9,12,11.8
										c6.5-0.1,11.8-5.3,11.8-11.8v-5.2C35.4,17.5,30.1,12.2,23.5,12.2L23.5,12.2z"/>
									<path id="Path_176" class="st2" d="M47.7,72.3L44.6,56c-0.7-3.6-3.3-6.6-6.9-7.8L30.6,46c-0.3,3.8-3.7,6.7-7.5,6.3
										c-3.4-0.3-6-3-6.3-6.3l-7.1,2.3c-3.5,1.1-6.2,4.1-6.9,7.8L0,70.3c-0.2,0.9,0.4,1.7,1.3,1.9c0.1,0,0.2,0,0.3,0L47.7,72.3
										L47.7,72.3z"/>
									<path id="Path_177" class="st11" d="M23.8,9.9v5.7c0,5.1-4.2,9.3-9.3,9.3l0,0H9.8c-2.3,0-4.2-1.9-4.2-4.2c0,0,0,0,0,0
										c0-0.2,0-0.4,0-0.6c0.1-0.4,0.4-0.7,0.8-0.7h3.8C12.1,13.6,17.7,9.7,23.8,9.9z"/>
								</g>
								<g id="Group_202" transform="translate(29.184 59.612)">
									<path id="Path_178" class="st0" d="M7.7,4.2c1-1,1-2.5,0-3.5c-0.8-0.8-2.1-1-3.1-0.3C4.4,0.5,4,0.5,3.8,0.4
										C2.6-0.3,1.1,0,0.4,1.2c-0.6,1-0.5,2.2,0.3,3l3.2,3.2c0.2,0.2,0.5,0.2,0.7,0L7.7,4.2z"/>
								</g>
							</g>
						</g>
					</g>
				</g>
			</g>
		</g>
	</g>
</g>
<g id="Layer_2">
	<g id="Group_180" transform="translate(218.399 118.798)">
		<ellipse id="Ellipse_16" class="st0" cx="28.7" cy="28.7" rx="28.7" ry="28.7"/>
		<g id="Group_179" transform="translate(0.509)">
			<g id="Group_6677">
				<g>
					<defs>
						<circle id="SVGID_7_" cx="28.3" cy="28.3" r="28.3"/>
					</defs>
					<clipPath id="SVGID_8_">
						<use xlink:href="#SVGID_7_"  style="overflow:visible;"/>
					</clipPath>
					<g id="Group_6676" class="st13">
						<g id="Group_178" transform="translate(11.433 10.172)">
							<g id="Group_177">
								<g id="Group_173" transform="translate(5.991)">
									<path id="Path_136" class="st2" d="M19.3,27.5H2.6c-1.4,0-2.6-1.2-2.6-2.6l0,0v-14C0,4.9,4.9,0,11,0
										c6,0,10.9,4.9,10.9,10.9v14C21.9,26.3,20.7,27.5,19.3,27.5L19.3,27.5L19.3,27.5z"/>
									<path id="Path_137" class="st2" d="M21.9,10.9v14c0,1.4-1.2,2.6-2.6,2.6h-2.9c1.4,0,2.6-1.2,2.6-2.6c0,0,0,0,0,0l0,0v-14
										c0-5.5-4-10.1-9.5-10.8C10,0,10.4,0,10.9,0C17,0,21.9,4.9,21.9,10.9C21.9,10.9,21.9,10.9,21.9,10.9L21.9,10.9L21.9,10.9z"
										/>
								</g>
								<g id="Group_175" transform="translate(5.28 13.755)">
									<g id="Group_174">
										<path id="Path_138" class="st4" d="M21,4.6c1.3,0,2.3-1,2.3-2.3C23.3,1,22.3,0,21,0h-1.5v4.6H21z"/>
										<path id="Path_139" class="st4" d="M2.3,4.6C1,4.6,0,3.5,0,2.3C0,1,1,0,2.3,0l0,0h1.5v4.6H2.3z"/>
									</g>
								</g>
								<path id="Path_140" class="st12" d="M34.1,48.7h-3.4l-2.4-12.6c-0.5-2.4-2-4.5-4.2-5.6l2.9,0.9c2.5,0.8,4.4,2.9,4.9,5.5
									L34.1,48.7z"/>
								<path id="Path_141" class="st4" d="M22.7,30.1c-0.2,3.2-3,5.6-6.2,5.4c-2.9-0.2-5.2-2.5-5.4-5.4l5.8-1.9L22.7,30.1z"/>
								<path id="Path_142" class="st4" d="M13.7,23.2h6.4v7.9h-6.4V23.2z"/>
								<path id="Path_143" class="st4" d="M16.9,5.6c-4.7,0-8.5,3.8-8.5,8.5v3.7c0.1,4.7,3.9,8.5,8.6,8.4c4.6-0.1,8.4-3.8,8.4-8.4
									v-3.7C25.5,9.5,21.6,5.7,16.9,5.6L16.9,5.6z"/>
								<path id="Path_144" class="st6" d="M34.1,48.7L31.9,37c-0.5-2.6-2.4-4.7-4.9-5.5l-5.1-1.6c-0.2,2.7-2.6,4.8-5.4,4.5
									c-2.4-0.2-4.3-2.1-4.5-4.5l-5.1,1.6C4.4,32.3,2.5,34.4,2,37L0,47.3c-0.1,0.6,0.3,1.2,0.9,1.4c0.1,0,0.1,0,0.2,0H34.1z"/>
								<path id="Path_145" class="st2" d="M17.2,4v4.1c0,3.7-3,6.7-6.7,6.7l0,0H7.2c-1.7,0-3-1.3-3-3l0,0c0-0.1,0-0.3,0-0.4
									c0-0.3,0.3-0.5,0.6-0.5h2.7C8.8,6.7,12.8,3.9,17.2,4z"/>
								<g id="Group_176" transform="translate(21.013 39.231)">
									<path id="Path_146" class="st6" d="M4.6,2.5c0.6-0.6,0.6-1.5,0-2.1C4.1-0.1,3.3-0.1,2.7,0.2c-0.2,0.1-0.4,0.1-0.5,0
										C1.6-0.2,0.6,0,0.2,0.7C-0.1,1.3-0.1,2,0.4,2.5l1.9,1.9c0.1,0.1,0.3,0.1,0.4,0c0,0,0,0,0,0L4.6,2.5z"/>
								</g>
							</g>
						</g>
					</g>
				</g>
			</g>
		</g>
	</g>
</g>
</svg>
