<?xml version="1.0" encoding="utf-8"?>
<!-- Generator: Adobe Illustrator 23.0.1, SVG Export Plug-In . SVG Version: 6.00 Build 0)  -->
<svg version="1.1" xmlns="http://www.w3.org/2000/svg" xmlns:xlink="http://www.w3.org/1999/xlink" x="0px" y="0px"
	 viewBox="0 0 263.2 456.8" style="enable-background:new 0 0 263.2 456.8;" xml:space="preserve">
<style type="text/css">
	.st0{fill:#F0B6CE;}
	.st1{fill:#E52F7D;}
	.st2{fill:#FFFFFF;stroke:#192D4B;}
	.st3{fill:#192D4B;}
	.st4{fill:none;}
	.st5{fill:none;stroke:#071828;}
</style>
<g id="boy">
</g>
<g id="lowerhand">
	<path class="st0" d="M167,104.9L167,104.9c3.7,5.7,2.1,13.3-3.6,17.1l-53.1,34.8c-5.7,3.7-13.3,2.1-17.1-3.6l0,0
		c-3.7-5.7-2.1-13.3,3.6-17.1l53.1-34.8C155.6,97.6,163.3,99.2,167,104.9z"/>
</g>
<g id="Layer_10">
	<path id="Path_3595" class="st1" d="M200.1,447.2l1.2,3.6c0.9,2.8,3.5,4.7,6.4,4.8l47.8,1.2c3.3,0.1,6.3-1.8,7.8-4.7l0,0
		l-22.8-14.3L200.1,447.2z"/>
</g>
<g id="Layer_9">
	<path id="Path_3596" class="st1" d="M154.1,447.2l-1.1,3.6c-0.8,2.8-3.3,4.7-6.1,4.8l-45.5,1.2c-3.2,0-6.1-1.8-7.4-4.7l0,0
		l21.7-14.3L154.1,447.2z"/>
</g>
<g id="Layer_8">
	<path id="Path_3598" class="st2" d="M125.1,229.4l-18.8,212c0,0,36.9,13.2,60.1,0l14.1-160.7l15.2,164.9c11,2.1,22.2,2.1,33.2,0
		c7.9-1.6,18.4-4.4,23.3-11.3L245,255.9l-19.1-18l-3-24L125.1,229.4z"/>
</g>
<g id="Layer_7">
	<g id="Group_6824" transform="translate(139.872 0)">
		<path id="Path_3599" class="st0" d="M57.8,39.2c0,3.1-1.9,5.6-4.2,5.6s-4.2-2.5-4.2-5.6c0-3.1,1.9-5.6,4.2-5.6
			C55.9,33.6,57.8,36.1,57.8,39.2z"/>
		<path id="Path_3600" class="st0" d="M10.6,39.2c0,3.1-1.9,5.6-4.2,5.6s-4.2-2.5-4.2-5.6c0-3.1,1.9-5.6,4.2-5.6
			S10.6,36.1,10.6,39.2z"/>
		<path id="Path_3601" class="st0" d="M19.5,63l-6.5,21.3l14.6,18l25.7-5.2V84.3c0,0-7.6-13.3-8.6-21.3H19.5z"/>
		<ellipse id="Ellipse_10" class="st0" cx="29.8" cy="39.7" rx="23.4" ry="31.3"/>
		<path id="Path_3602" class="st3" d="M6.4,39.7c0,0,4-11,6.5-13.5c0,0,2.5,5.2,16.9,4.3s17.4-4.3,17.4-4.3s6.2,9.9,6,13.5
			c0,0,5.5-38.7-23.4-39.7S6.4,39.7,6.4,39.7z"/>
	</g>
</g>
<g id="Layer_6">
	<path class="st1" d="M208.7,73.9c-14.9-2.1-18.8,4.2-18.8,4.2s-3,13.4-16.9,13.6C159,92,153.6,81.6,154.7,78.1
		c0,0-20.2-3.9-23.6-4.2c-3.4-0.3-19.3,3.5-26.7,55.1c0,0-6.9,2.3,22.7,3.6c0,0-6.7,82.2-7.4,105.2c0,0,81.9,4.2,114.1-21.3
		c0,0-4.3-67.5-16.7-86c0,0,17.8,3.3,32.5-4.5C246.2,123.9,221.3,75.6,208.7,73.9z"/>
</g>
<g id="Layer_5">
	<path class="st1" d="M249.6,126.1c0.2,0.2,0.4,0.1,0.4-0.2C249.9,126,249.8,126.1,249.6,126.1z"/>
</g>
<g id="Layer_4">
	<path id="Path_3604" class="st0" d="M242.6,129c0,0,18.1,67.4,0,124.7l-13.7-12.9c0,0-2,5.4-4.1,5.1c-2-0.3-5.6-1.3-2.7-7.6
		c2.9-6.3,4-18,9.1-21c0,0-4.6-57.8-14.1-86.6L242.6,129z"/>
</g>
<g id="Layer_3">
	<g id="Group_6841" transform="translate(110.964 236.813)">
		<g id="Ellipse_13" transform="translate(16.495 19.706)">
			<ellipse class="st4" cx="6.2" cy="3.5" rx="4" ry="3.5"/>
			<ellipse class="st5" cx="6.2" cy="3.5" rx="3.5" ry="3"/>
		</g>
		<g id="Ellipse_14" transform="translate(41.495 36.706)">
			<ellipse class="st4" cx="5.7" cy="4" rx="3.5" ry="4"/>
			<ellipse class="st5" cx="5.7" cy="4" rx="3" ry="3.5"/>
		</g>
		<g id="Ellipse_21" transform="translate(34.495 121.706)">
			<circle class="st4" cx="5.7" cy="3.5" r="3.5"/>
			<circle class="st5" cx="5.7" cy="3.5" r="3"/>
		</g>
		<g id="Ellipse_24" transform="translate(12.495 173.706)">
			<circle class="st4" cx="5.7" cy="3.5" r="3.5"/>
			<circle class="st5" cx="5.7" cy="3.5" r="3"/>
		</g>
		<g id="Ellipse_18" transform="translate(27.495 81.706)">
			<circle class="st4" cx="5.7" cy="3.5" r="3.5"/>
			<circle class="st5" cx="5.7" cy="3.5" r="3"/>
		</g>
		<g id="Ellipse_15" transform="translate(53.495 19.706)">
			<ellipse class="st4" cx="6.2" cy="3.5" rx="4" ry="3.5"/>
			<ellipse class="st5" cx="6.2" cy="3.5" rx="3.5" ry="3"/>
		</g>
		<g id="Ellipse_27" transform="translate(76.495 -0.294)">
			<ellipse class="st4" cx="5.7" cy="4" rx="3.5" ry="4"/>
			<ellipse class="st5" cx="5.7" cy="4" rx="3" ry="3.5"/>
		</g>
		<g id="Ellipse_30" transform="translate(104.495 57.706)">
			<ellipse class="st4" cx="5.2" cy="3.5" rx="3" ry="3.5"/>
			<ellipse class="st5" cx="5.2" cy="3.5" rx="2.5" ry="3"/>
		</g>
		<g id="Ellipse_33" transform="translate(96.495 107.706)">
			<ellipse class="st4" cx="6.2" cy="3.5" rx="4" ry="3.5"/>
			<ellipse class="st5" cx="6.2" cy="3.5" rx="3.5" ry="3"/>
		</g>
		<g id="Ellipse_36" transform="translate(117.495 157.706)">
			<ellipse class="st4" cx="6.2" cy="3.5" rx="4" ry="3.5"/>
			<ellipse class="st5" cx="6.2" cy="3.5" rx="3.5" ry="3"/>
		</g>
		<g id="Ellipse_35" transform="translate(89.495 145.706)">
			<circle class="st4" cx="5.7" cy="3.5" r="3.5"/>
			<circle class="st5" cx="5.7" cy="3.5" r="3"/>
		</g>
		<g id="Ellipse_38" transform="translate(125.495 189.706)">
			<ellipse class="st4" cx="5.7" cy="4" rx="3.5" ry="4"/>
			<ellipse class="st5" cx="5.7" cy="4" rx="3" ry="3.5"/>
		</g>
		<g id="Ellipse_28" transform="translate(107.495 19.706)">
			<circle class="st4" cx="5.7" cy="3.5" r="3.5"/>
			<circle class="st5" cx="5.7" cy="3.5" r="3"/>
		</g>
		<g id="Ellipse_32" transform="translate(122.495 84.706)">
			<ellipse class="st4" cx="5.2" cy="3.5" rx="3" ry="3.5"/>
			<ellipse class="st5" cx="5.2" cy="3.5" rx="2.5" ry="3"/>
		</g>
		<g id="Ellipse_34" transform="translate(125.495 119.706)">
			<ellipse class="st4" cx="5.7" cy="4" rx="3.5" ry="4"/>
			<ellipse class="st5" cx="5.7" cy="4" rx="3" ry="3.5"/>
		</g>
		<g id="Ellipse_37" transform="translate(96.495 176.706)">
			<ellipse class="st4" cx="6.2" cy="3.5" rx="4" ry="3.5"/>
			<ellipse class="st5" cx="6.2" cy="3.5" rx="3.5" ry="3"/>
		</g>
		<g id="Ellipse_29" transform="translate(79.495 41.706)">
			<ellipse class="st4" cx="5.7" cy="3" rx="3.5" ry="3"/>
			<ellipse class="st5" cx="5.7" cy="3" rx="3" ry="2.5"/>
		</g>
		<g id="Ellipse_31" transform="translate(79.495 81.706)">
			<circle class="st4" cx="5.7" cy="3.5" r="3.5"/>
			<circle class="st5" cx="5.7" cy="3.5" r="3"/>
		</g>
		<g id="Ellipse_16" transform="translate(16.495 53.706)">
			<ellipse class="st4" cx="6.2" cy="3.5" rx="4" ry="3.5"/>
			<ellipse class="st5" cx="6.2" cy="3.5" rx="3.5" ry="3"/>
		</g>
		<g id="Ellipse_20" transform="translate(9.495 100.706)">
			<circle class="st4" cx="5.7" cy="3.5" r="3.5"/>
			<circle class="st5" cx="5.7" cy="3.5" r="3"/>
		</g>
		<g id="Ellipse_22" transform="translate(9.495 142.706)">
			<circle class="st4" cx="5.7" cy="3.5" r="3.5"/>
			<circle class="st5" cx="5.7" cy="3.5" r="3"/>
		</g>
		<g id="Ellipse_25" transform="translate(39.495 193.706)">
			<circle class="st4" cx="5.7" cy="3.5" r="3.5"/>
			<circle class="st5" cx="5.7" cy="3.5" r="3"/>
		</g>
		<g id="Ellipse_17" transform="translate(46.495 66.706)">
			<circle class="st4" cx="5.7" cy="3.5" r="3.5"/>
			<circle class="st5" cx="5.7" cy="3.5" r="3"/>
		</g>
		<g id="Ellipse_19" transform="translate(46.495 107.706)">
			<circle class="st4" cx="5.7" cy="3.5" r="3.5"/>
			<circle class="st5" cx="5.7" cy="3.5" r="3"/>
		</g>
		<g id="Ellipse_23" transform="translate(37.495 157.706)">
			<ellipse class="st4" cx="6.2" cy="3.5" rx="4" ry="3.5"/>
			<ellipse class="st5" cx="6.2" cy="3.5" rx="3.5" ry="3"/>
		</g>
		<g id="Ellipse_26" transform="translate(0.495 193.706)">
			<ellipse class="st4" cx="5.2" cy="3.5" rx="3" ry="3.5"/>
			<ellipse class="st5" cx="5.2" cy="3.5" rx="2.5" ry="3"/>
		</g>
	</g>
</g>
<g id="upperhand">
	<path class="st0" d="M108.6,157.4L108.6,157.4c-5.8,3.5-13.4,1.6-16.9-4.2L59,98.8c-3.5-5.8-1.6-13.4,4.2-16.9l0,0
		c5.8-3.5,13.4-1.6,16.9,4.2l32.8,54.4C116.4,146.3,114.5,153.9,108.6,157.4z"/>
</g>
<g id="wrist">
	<path class="st0" d="M61.8,98.1l14.9-3.2c1.5-0.3,2.5-1.8,2.3-3.3l0,0c2-1.4-0.8-2.6,0.5-3.9c2.4-2.4,4.5-8.6,4.9-9.9
		c5.5-18-6.2-1.1-7.4-1.3c-5.6-0.7-4.1-9.7-3.6-14c0.5-4.3,0.2-7.5-1.7-7.8s-1.1-0.1-2.7,3.8c-1.6,3.9-2.2,13.5-2.2,13.5
		s-0.1-11.3-1.5-18c-0.5-2.6-2.1-2.6-2.8-3c-2.1-1.1-2.1,2.6-2.6,7.9c-0.3,4.1-0.3,8.1,0,12.2c0,0-1.3-10.1-3.3-15.4
		c-1-2.6,0-3.3-3.3-1.8c-1.1,2.1-2.7,1.7-0.8,9.3c1.8,7.6,2.2,10.3,2.2,10.3s-5.1-6.1-6-8.5c-0.9-2.3-4.5,0.4-3,2.8
		c1.5,2.4,3,6.6,5.1,9.2c2.1,2.6,2.3,8,3.1,10.4c0.9,2.3,3.5,8.3,3.5,8.3l0,0C58.1,97.5,59.9,98.5,61.8,98.1z"/>
</g>
</svg>
