<svg id="circles2" xmlns="http://www.w3.org/2000/svg" width="470.276" height="312.927" viewBox="0 0 470.276 312.927">
  <g id="Group_546" data-name="Group 546" transform="translate(214.659 118.835)">
    <g id="Group_461" data-name="Group 461">
      <g id="Ellipse_18-2" data-name="Ellipse 18-2">
        <path id="Path_577" data-name="Path 577" d="M258.335,110.757a58.5,58.5,0,1,1-58.5,58.507v0a58.5,58.5,0,0,1,58.5-58.5Z" transform="translate(-199.833 -110.757)" fill="#ebf3ff"/>
      </g>
    </g>
    <g id="Group_545" data-name="Group 545" transform="translate(32.32 20.453)">
      <rect id="Rectangle_199" data-name="Rectangle 199" width="2.173" height="15.828" rx="0.282" transform="matrix(0.771, -0.636, 0.636, 0.771, 33.703, 48.968)" fill="#071828"/>
      <path id="Path_578" data-name="Path 578" d="M232.148,136.515h0a.861.861,0,0,1-.424-1.136l3.469-7.623a.858.858,0,0,1,1.134-.424h0a.86.86,0,0,1,.426,1.134l-3.469,7.623A.862.862,0,0,1,232.148,136.515Z" transform="translate(-184.688 -106.595)" fill="#071828"/>
      <path id="Rectangle_200" data-name="Rectangle 200" d="M216.464,149.144l8.687-10.528a1.084,1.084,0,0,1,1.528-.147h0a1.084,1.084,0,0,1,.147,1.527l-8.684,10.528a1.087,1.087,0,0,1-1.53.147h0A1.086,1.086,0,0,1,216.464,149.144Z" transform="translate(-207.71 -90.238)" fill="#071828"/>
      <path id="Path_579" data-name="Path 579" d="M264.539,144.455a25.408,25.408,0,0,1-8.871,19.265c-.284.249-.573.476-.865.708a25.813,25.813,0,0,1-4.847,3.013q-.729.348-1.5.65l-.147.057q-1,.4-2.036.708a26.188,26.188,0,0,1-14.812.07q-1.121-.329-2.2-.748-.691-.269-1.361-.581c-.354-.162-.705-.331-1.049-.5a25.838,25.838,0,0,1-5.146-3.489c-.359-.311-.708-.635-1.047-.967a24.93,24.93,0,0,1-2.153-2.377c-.274-.346-.543-.7-.8-1.059A25.222,25.222,0,0,1,214.126,152q-.269-.86-.476-1.744a25.512,25.512,0,0,1,25.106-31.288c.528,0,1.054.02,1.575.052l-1.575,25.462Z" transform="translate(-212.528 -118.965)" fill="#e829a3"/>
      <rect id="Rectangle_201" data-name="Rectangle 201" width="26.262" height="0.735" rx="0.147" transform="translate(0 24.962)" fill="#fdfcf5"/>
      <path id="Path_580" data-name="Path 580" d="M236.3,137.082,214.5,124.5a.367.367,0,0,1-.135-.5h0a.371.371,0,0,1,.5-.135l21.8,12.587a.371.371,0,0,1,.135.5h0A.369.369,0,0,1,236.3,137.082Z" transform="translate(-210.54 -111.727)" fill="#fdfcf5"/>
      <rect id="Rectangle_202" data-name="Rectangle 202" width="0.735" height="25.34" rx="0.146" transform="translate(14.423 2.584) rotate(-26.674)" fill="#fdfcf5"/>
      <circle id="Ellipse_97" data-name="Ellipse 97" cx="8.756" cy="8.756" r="8.756" transform="translate(0.471 51.129)" fill="#071828"/>
      <circle id="Ellipse_98" data-name="Ellipse 98" cx="7.418" cy="7.418" r="7.418" transform="translate(1.809 52.469)" fill="#fff"/>
      <path id="Path_581" data-name="Path 581" d="M233.058,128.113h0a.86.86,0,0,1,.857-.857h8.375a.86.86,0,0,1,.857.857h0a.86.86,0,0,1-.857.857h-8.375A.86.86,0,0,1,233.058,128.113Z" transform="translate(-182.585 -106.595)" fill="#071828"/>
      <path id="Path_582" data-name="Path 582" d="M216.7,148.073h0a.321.321,0,0,1-.316-.319v-7.839a.321.321,0,0,1,.316-.319h0a.321.321,0,0,1,.316.319v7.839A.321.321,0,0,1,216.7,148.073Z" transform="translate(-207.468 -88.186)" fill="#071828"/>
      <path id="Path_583" data-name="Path 583" d="M216.531,145.625h0a.318.318,0,0,1,.117-.434l6.8-3.912a.32.32,0,0,1,.434.115h0a.318.318,0,0,1-.117.434l-6.8,3.912A.32.32,0,0,1,216.531,145.625Z" transform="translate(-207.304 -85.737)" fill="#071828"/>
      <path id="Path_584" data-name="Path 584" d="M216.531,143.093h0a.318.318,0,0,1,.434-.117l6.783,3.937a.322.322,0,0,1,.115.434h0a.318.318,0,0,1-.434.117l-6.783-3.937A.322.322,0,0,1,216.531,143.093Z" transform="translate(-207.303 -83.206)" fill="#071828"/>
      <path id="Path_585" data-name="Path 585" d="M216.713,143h0a.317.317,0,0,1,.316.316L217,151.156a.322.322,0,0,1-.319.316h0a.321.321,0,0,1-.316-.319l.027-7.842a.317.317,0,0,1,.319-.314Z" transform="translate(-207.486 -83.11)" fill="#071828"/>
      <path id="Path_586" data-name="Path 586" d="M220.937,143.094h0a.314.314,0,0,1-.115.429l0,0-6.81,3.887a.318.318,0,0,1-.434-.117h0a.321.321,0,0,1,.12-.434l6.81-3.887A.318.318,0,0,1,220.937,143.094Z" transform="translate(-211.71 -83.206)" fill="#071828"/>
      <path id="Path_587" data-name="Path 587" d="M220.91,145.656h0a.319.319,0,0,1-.434.112l-6.768-3.962a.319.319,0,0,1-.112-.434h0a.317.317,0,0,1,.434-.112h0l6.768,3.96A.317.317,0,0,1,220.91,145.656Z" transform="translate(-211.683 -85.768)" fill="#071828"/>
      <circle id="Ellipse_99" data-name="Ellipse 99" cx="8.756" cy="8.756" r="8.756" transform="translate(35.527 51.181)" fill="#071828"/>
      <circle id="Ellipse_100" data-name="Ellipse 100" cx="7.418" cy="7.418" r="7.418" transform="translate(36.867 52.522)" fill="#fff"/>
      <path id="Path_588" data-name="Path 588" d="M230.766,148.082h0a.317.317,0,0,0,.316-.316v-7.832a.317.317,0,0,0-.316-.316h0a.321.321,0,0,0-.319.316v7.842A.319.319,0,0,0,230.766,148.082Z" transform="translate(-186.48 -88.154)" fill="#071828"/>
      <path id="Path_589" data-name="Path 589" d="M235,145.64h0a.315.315,0,0,0-.117-.431l-6.8-3.912a.32.32,0,0,0-.434.115h0a.318.318,0,0,0,.117.434l6.8,3.912A.318.318,0,0,0,235,145.64Z" transform="translate(-190.713 -85.712)" fill="#071828"/>
      <path id="Path_590" data-name="Path 590" d="M234.989,143.107h0a.322.322,0,0,0-.434-.115l-6.783,3.937a.32.32,0,0,0-.115.434h0a.317.317,0,0,0,.434.115h0l6.78-3.937A.318.318,0,0,0,234.989,143.107Z" transform="translate(-190.704 -83.18)" fill="#071828"/>
      <path id="Path_591" data-name="Path 591" d="M230.764,143.014h0a.322.322,0,0,0-.316.319l.027,7.842a.321.321,0,0,0,.319.316h0a.322.322,0,0,0,.316-.319l-.03-7.842a.317.317,0,0,0-.316-.316Z" transform="translate(-186.479 -83.086)" fill="#071828"/>
      <path id="Path_592" data-name="Path 592" d="M230.6,143.109h0a.318.318,0,0,0,.117.434l6.81,3.887a.312.312,0,0,0,.429-.115l0,0h0a.318.318,0,0,0-.117-.434l-6.81-3.887A.315.315,0,0,0,230.6,143.109Z" transform="translate(-186.314 -83.182)" fill="#071828"/>
      <path id="Path_593" data-name="Path 593" d="M230.6,145.671h0a.317.317,0,0,0,.434.115h0l6.766-3.962a.317.317,0,0,0,.115-.434h0a.317.317,0,0,0-.434-.112h0l-6.775,3.97A.315.315,0,0,0,230.6,145.671Z" transform="translate(-186.314 -85.743)" fill="#071828"/>
    </g>
  </g>
  <g id="Group_547" data-name="Group 547" transform="translate(0 206.474)">
    <circle id="Ellipse_101" data-name="Ellipse 101" cx="53.227" cy="53.227" r="53.227" fill="#ebf3ff"/>
    <path id="Path_594" data-name="Path 594" d="M143.775,134.951a2.242,2.242,0,0,0-2.188-2.278H100.716a2.242,2.242,0,0,0-2.185,2.278v9.367a10.261,10.261,0,0,0,.192,1.971,7.67,7.67,0,0,1-.192-1.667v18.368a3.928,3.928,0,0,0,3.825,3.987h37.6a3.928,3.928,0,0,0,3.825-3.987V144.622a7.671,7.671,0,0,1-.192,1.667,10.262,10.262,0,0,0,.192-1.971ZM99.1,147.555a7.577,7.577,0,0,1-.354-1.189A9.861,9.861,0,0,0,99.1,147.555Zm44.106,0a9.858,9.858,0,0,0,.354-1.189,7.568,7.568,0,0,1-.351,1.189Z" transform="translate(-67.307 -93.7)" fill="#071828"/>
    <path id="Path_595" data-name="Path 595" d="M120.445,145.361H108.132a5.006,5.006,0,0,1-5-5v-5.871a5.006,5.006,0,0,1,5-5h12.312a5.006,5.006,0,0,1,5,5v5.871A5.006,5.006,0,0,1,120.445,145.361Zm-12.312-12.32a1.456,1.456,0,0,0-1.453,1.455v5.871a1.456,1.456,0,0,0,1.453,1.455h12.312a1.456,1.456,0,0,0,1.453-1.455v-5.878a1.456,1.456,0,0,0-1.453-1.455Z" transform="translate(-60.443 -98.452)" fill="#e829a3"/>
    <path id="Path_596" data-name="Path 596" d="M147.026,133.946c0-.7-1.069-1.273-2.387-1.273H99.972c-1.318,0-2.39.571-2.39,1.273v5.233a3.037,3.037,0,0,0,.209,1.1,2.376,2.376,0,0,1-.209-.934v10.277c0,1.224,1.889,2.243,4.181,2.243h41.084c2.293,0,4.179-1,4.179-2.243V139.356a2.374,2.374,0,0,1-.207.934,3.035,3.035,0,0,0,.207-1.1ZM98.2,141a3.01,3.01,0,0,1-.386-.665A4.027,4.027,0,0,0,98.2,141Zm48.206,0a4.026,4.026,0,0,0,.386-.665A3.01,3.01,0,0,1,146.408,141Z" transform="translate(-68.721 -93.7)" fill="#e829a3"/>
    <path id="Path_597" data-name="Path 597" d="M105.754,144.69v-3.631a2.367,2.367,0,0,1,2.362-2.362h4.523A2.367,2.367,0,0,1,115,141.059v3.631a2.367,2.367,0,0,1-2.362,2.362h-4.523A2.367,2.367,0,0,1,105.754,144.69Z" transform="translate(-56.529 -84.713)" fill="#afccef"/>
  </g>
  <g id="Group_552" data-name="Group 552" transform="translate(66.951)">
    <g id="Group_430" data-name="Group 430">
      <g id="Ellipse_18" data-name="Ellipse 18">
        <g id="Group_548" data-name="Group 548">
          <circle id="Ellipse_102" data-name="Ellipse 102" cx="51.034" cy="51.034" r="51.034" fill="#ebf3ff"/>
        </g>
      </g>
    </g>
    <path id="Path_598" data-name="Path 598" d="M199.024,99.609,177.14,75.991a8.152,8.152,0,0,0-1.612-1.356,7.8,7.8,0,0,0-2.155-1.1,6.546,6.546,0,0,0-.962-.284A7.914,7.914,0,0,0,170.477,73h-.055l-12.554-.145a7.557,7.557,0,0,0-1.034.065,7.7,7.7,0,0,0-2.185.65,5.863,5.863,0,0,0-1.3.792,6.719,6.719,0,0,0-1.909,2.133,7.406,7.406,0,0,0-.969,3.22l-.857,12.567a9.327,9.327,0,0,0,2.459,6.89l21.874,23.648a4.179,4.179,0,0,0,5.883.227l18.953-17.533A4.2,4.2,0,0,0,199.024,99.609Z" transform="translate(-109.07 -47.466)" fill="#afccef"/>
    <g id="Group_550" data-name="Group 550" transform="translate(21.199 25.398)">
      <g id="Group_549" data-name="Group 549">
        <path id="Path_599" data-name="Path 599" d="M177.25,127.528l-6.858-21.976,1.856-.581a1.059,1.059,0,0,0,.7-1.323l0-.007-.917-2.95a17.029,17.029,0,1,0-17.842,5.567l.922,2.945a1.066,1.066,0,0,0,1.333.7l1.859-.578.895,2.873-1.278,2.437a1.067,1.067,0,0,0,.449,1.438l2.44,1.278,1.979,6.344-1.278,2.437a1.066,1.066,0,0,0,.446,1.438h0l2.437,1.278.765,2.455a1.06,1.06,0,0,0,.521.623l6.6,3.461a1.063,1.063,0,0,0,1.435-.449l3.451-6.6A1.061,1.061,0,0,0,177.25,127.528Zm-23.09-40.1a5.323,5.323,0,1,1,7.184-2.245v0A5.324,5.324,0,0,1,154.16,87.424Z" transform="translate(-141.841 -72.859)" fill="#be1fc9"/>
      </g>
    </g>
    <path id="Path_600" data-name="Path 600" d="M166.319,75.075a8.132,8.132,0,0,0-1.869.548l-.05.025a.6.6,0,0,0-.1-.15,8.707,8.707,0,0,0-15,8.223,7.968,7.968,0,0,0,1.5,2.791,8.93,8.93,0,0,0,2.94,2.342l-.872,1.744a10.478,10.478,0,0,1-3.588-2.866,10.8,10.8,0,0,1-.872-1.3,10.649,10.649,0,0,1,17.468-12.086A5.825,5.825,0,0,1,166.319,75.075Z" transform="translate(-113.068 -51.155)" fill="#071828"/>
    <g id="Group_551" data-name="Group 551" transform="translate(44.84 57.425)">
      <path id="Path_601" data-name="Path 601" d="M158.9,109.749a1.247,1.247,0,0,1-1.2-.895L151.38,87.309a1.246,1.246,0,1,1,2.392-.7l6.322,21.535a1.246,1.246,0,0,1-.847,1.545A1.178,1.178,0,0,1,158.9,109.749Z" transform="translate(-151.329 -85.712)" fill="#fff"/>
    </g>
  </g>
  <g id="Group_561" data-name="Group 561" transform="translate(377.722 25.927)">
    <g id="Group_554" data-name="Group 554">
      <g id="Group_553" data-name="Group 553">
        <g id="Group_458" data-name="Group 458">
          <circle id="Ellipse_18-3" data-name="Ellipse 18-3" cx="46.277" cy="46.277" r="46.277" fill="#ebf3ff"/>
        </g>
      </g>
    </g>
    <g id="Group_557" data-name="Group 557" transform="translate(14.807 25.375)">
      <path id="Path_602" data-name="Path 602" d="M249.921,74.316h-1.1a5.532,5.532,0,0,1-5.5-5.559,1.1,1.1,0,0,1,1.1-1.111h3.855V65.42h-3.852a3.323,3.323,0,0,0-3.3,3.337,7.748,7.748,0,0,0,7.7,7.785h3.3Z" transform="translate(-241.115 -54.862)" fill="#e829a3"/>
      <path id="Path_603" data-name="Path 603" d="M243.324,64.3a34.131,34.131,0,0,0,5.382,18.408l.67,1.052v.556h14.308v-.556l.673-1.052A34.131,34.131,0,0,0,269.74,64.3Z" transform="translate(-237.819 -56.525)" fill="#e829a3"/>
      <path id="Path_604" data-name="Path 604" d="M243.324,72.114h26.414a2.214,2.214,0,0,1-2.2,2.223H245.524a2.21,2.21,0,0,1-2.2-2.22Z" transform="translate(-237.819 -44.875)" fill="#071828"/>
      <g id="Group_555" data-name="Group 555" transform="translate(14.138)">
        <path id="Path_605" data-name="Path 605" d="M249.387,67.849A.555.555,0,0,1,249,66.9l.249-.249a1.1,1.1,0,0,0-.015-1.55,1.035,1.035,0,0,0-.152-.125,2.212,2.212,0,0,1-.6-3.05,2.181,2.181,0,0,1,.272-.334l.249-.249a.547.547,0,0,1,.773,0l.005,0a.557.557,0,0,1,.015.785l-.015.015-.249.249a1.1,1.1,0,0,0,0,1.54,1.385,1.385,0,0,0,.164.135,2.213,2.213,0,0,1,.6,3.05,2.083,2.083,0,0,1-.272.336l-.249.249a.541.541,0,0,1-.389.162Z" transform="translate(-244.813 -61.183)" fill="#afccef"/>
        <path id="Path_606" data-name="Path 606" d="M250.712,67.849a.555.555,0,0,1-.389-.947l.249-.249a1.1,1.1,0,0,0-.015-1.55,1.038,1.038,0,0,0-.152-.125,2.212,2.212,0,0,1-.6-3.05,2.177,2.177,0,0,1,.272-.334l.249-.249a.55.55,0,0,1,.775,0l.005,0a.56.56,0,0,1,0,.785v.015l-.249.249a1.1,1.1,0,0,0,0,1.54,1.385,1.385,0,0,0,.164.135,2.213,2.213,0,0,1,.6,3.05,2.083,2.083,0,0,1-.272.336l-.249.249a.551.551,0,0,1-.391.162Z" transform="translate(-242.837 -61.183)" fill="#afccef"/>
        <path id="Path_607" data-name="Path 607" d="M248.061,67.849a.555.555,0,0,1-.389-.947l.249-.249a1.094,1.094,0,0,0-.01-1.547,1.072,1.072,0,0,0-.154-.127,2.212,2.212,0,0,1-.6-3.05,2.177,2.177,0,0,1,.272-.334l.249-.249a.547.547,0,0,1,.772,0l.005,0a.557.557,0,0,1,.015.785l-.015.015-.249.249a1.1,1.1,0,0,0,0,1.54,1.074,1.074,0,0,0,.164.135,2.221,2.221,0,0,1,.331,3.386l-.249.249a.541.541,0,0,1-.389.162Z" transform="translate(-246.788 -61.183)" fill="#afccef"/>
      </g>
      <g id="Group_556" data-name="Group 556" transform="translate(25.872 13.869)">
        <path id="Path_608" data-name="Path 608" d="M252.546,72.892a.553.553,0,0,0,.513-.354,34.791,34.791,0,0,0,1.52-5.086.556.556,0,0,0-.386-.683.545.545,0,0,0-.673.379l0,.01-.012.055a33.542,33.542,0,0,1-1.47,4.921.554.554,0,0,0,.314.72A.531.531,0,0,0,252.546,72.892Z" transform="translate(-250.753 -66.749)" fill="#fff"/>
        <path id="Path_609" data-name="Path 609" d="M252.045,71.4a.541.541,0,0,0,.5-.309c.1-.207.2-.416.3-.625a.559.559,0,0,0-.249-.748.548.548,0,0,0-.738.229l-.01.02v.02l-.292.608a.555.555,0,0,0,.247.745l0,0A.537.537,0,0,0,252.045,71.4Z" transform="translate(-251.497 -62.416)" fill="#fff"/>
      </g>
    </g>
    <g id="Group_560" data-name="Group 560" transform="translate(40.229 31.646)">
      <path id="Path_610" data-name="Path 610" d="M262.02,76.84h1.111a5.56,5.56,0,0,0,5.559-5.559h0a1.108,1.108,0,0,0-1.106-1.111h-3.9V67.944h3.885a3.334,3.334,0,0,1,3.337,3.332v0a7.785,7.785,0,0,1-7.785,7.782H259.8Z" transform="translate(-238.666 -57.368)" fill="#be1fc9"/>
      <path id="Path_611" data-name="Path 611" d="M278.006,66.826a33.887,33.887,0,0,1-5.437,18.408l-.68,1.052v.556H257.436v-.556l-.68-1.052a33.887,33.887,0,0,1-5.437-18.408Z" transform="translate(-251.315 -59.036)" fill="#be1fc9"/>
      <path id="Path_612" data-name="Path 612" d="M278.008,74.635H251.317a2.225,2.225,0,0,0,2.225,2.223H275.78A2.226,2.226,0,0,0,278.008,74.635Z" transform="translate(-251.317 -47.386)" fill="#071828"/>
      <g id="Group_558" data-name="Group 558" transform="translate(8.722)">
        <path id="Path_613" data-name="Path 613" d="M257.446,70.376a.555.555,0,0,1-.394-.949l.249-.249a1.1,1.1,0,0,0-.015-1.55,1.036,1.036,0,0,0-.152-.125,2.2,2.2,0,0,1-.61-3.048,2.257,2.257,0,0,1,.277-.336l.249-.249a.556.556,0,1,1,.8.772l-.012.015-.249.249a1.087,1.087,0,0,0,0,1.538h0a.962.962,0,0,0,.164.137,2.2,2.2,0,0,1,.61,3.048l0,0a2.346,2.346,0,0,1-.274.336l-.249.249a.556.556,0,0,1-.394.162Z" transform="translate(-252.821 -63.7)" fill="#afccef"/>
        <path id="Path_614" data-name="Path 614" d="M258.784,70.376a.555.555,0,0,1-.394-.949l.249-.249a1.085,1.085,0,0,0,0-1.533l0,0a1.109,1.109,0,0,0-.167-.137,2.2,2.2,0,0,1-.608-3.05,2.071,2.071,0,0,1,.277-.334l.249-.249a.556.556,0,1,1,.8.772l-.015.015-.249.249a1.09,1.09,0,0,0,0,1.54,1.077,1.077,0,0,0,.164.135,2.2,2.2,0,0,1,.608,3.05,2.342,2.342,0,0,1-.274.336l-.249.249a.546.546,0,0,1-.391.162Z" transform="translate(-250.822 -63.7)" fill="#afccef"/>
        <path id="Path_615" data-name="Path 615" d="M256.105,70.376a.555.555,0,0,1-.391-.949l.249-.249a1.089,1.089,0,0,0,0-1.537,1.253,1.253,0,0,0-.167-.137,2.2,2.2,0,0,1-.611-3.048,2.258,2.258,0,0,1,.277-.336l.249-.249a.556.556,0,1,1,.8.772l-.015.015-.249.249a1.085,1.085,0,0,0-.005,1.533l.005,0a.979.979,0,0,0,.167.137,2.2,2.2,0,0,1,.611,3.048,2.148,2.148,0,0,1-.279.339l-.249.249a.556.556,0,0,1-.394.162Z" transform="translate(-254.817 -63.7)" fill="#afccef"/>
      </g>
      <g id="Group_559" data-name="Group 559" transform="translate(2.232 13.866)">
        <path id="Path_616" data-name="Path 616" d="M254.287,75.419a.554.554,0,0,1-.518-.354,34.533,34.533,0,0,1-1.533-5.086.555.555,0,0,1,1.064-.319l.007.025.012.055a33.544,33.544,0,0,0,1.5,4.921.557.557,0,0,1-.518.748Z" transform="translate(-252.213 -69.264)" fill="#fff"/>
        <path id="Path_617" data-name="Path 617" d="M254.064,73.916a.545.545,0,0,1-.5-.309c-.1-.207-.207-.416-.3-.625a.557.557,0,1,1,1-.5v.02c.1.2.194.406.294.608a.555.555,0,0,1-.252.745.568.568,0,0,1-.247.057Z" transform="translate(-250.735 -64.921)" fill="#fff"/>
      </g>
    </g>
  </g>
</svg>
