<?xml version="1.0" encoding="utf-8"?>
<!-- Generator: Adobe Illustrator 23.0.1, SVG Export Plug-In . SVG Version: 6.00 Build 0)  -->
<svg version="1.1" xmlns="http://www.w3.org/2000/svg" xmlns:xlink="http://www.w3.org/1999/xlink" x="0px" y="0px"
	 viewBox="0 0 470.3 312.9" style="enable-background:new 0 0 470.3 312.9;" xml:space="preserve">
<style type="text/css">
	.st0{fill:#EBF3FF;}
	.st1{fill:#071828;}
	.st2{fill:#E829A3;}
	.st3{fill:#FDFCF5;}
	.st4{fill:#FFFFFF;}
	.st5{fill:#AFCCEF;}
	.st6{fill:#BE1FC9;}
</style>
<g id="discover4_1_">
	<g id="discover4" transform="translate(214.659 118.835)">
		
			<animateTransform  accumulate="none" additive="replace" attributeName="transform" attributeType="xml" calcMode="linear" dur="5s" fill="remove" repeatCount="indefinite" restart="always" type="translate" values="0,0; -10,10; 0,0; 20,-10; 0,0">
			</animateTransform>
		<g id="Group_461">
			<g id="Ellipse_18-2">
				<path id="Path_577" class="st0" d="M58.5,0C90.8,0,117,26.2,117,58.5S90.8,117,58.5,117S0,90.8,0,58.5l0,0C0,26.2,26.2,0,58.5,0
					L58.5,0L58.5,0z"/>
			</g>
		</g>
		<g id="Group_545" transform="translate(32.32 20.453)">
			<path id="Rectangle_199" class="st1" d="M33.9,48.8l1.2-1c0.1-0.1,0.3-0.1,0.4,0l9.7,11.8c0.1,0.1,0.1,0.3,0,0.4L44,61
				c-0.1,0.1-0.3,0.1-0.4,0l-9.7-11.8C33.8,49.1,33.8,48.9,33.9,48.8z"/>
			<path id="Path_578" class="st1" d="M47.5,29.9L47.5,29.9c-0.4-0.2-0.6-0.7-0.4-1.1l3.5-7.6c0.2-0.4,0.7-0.6,1.1-0.4l0,0
				c0.4,0.2,0.6,0.7,0.4,1.1l-3.5,7.6C48.4,29.9,47.9,30.1,47.5,29.9z"/>
			<path id="Rectangle_200" class="st1" d="M8.8,58.9l8.7-10.5c0.4-0.5,1.1-0.5,1.5-0.1l0,0l0,0c0.5,0.4,0.5,1.1,0.1,1.5l0,0
				l-8.7,10.5c-0.4,0.5-1.1,0.5-1.5,0.1l0,0C8.4,60.1,8.4,59.4,8.8,58.9z"/>
			<path id="Path_579" class="st2" d="M52,25.5c0,7.4-3.2,14.4-8.9,19.3c-0.3,0.2-0.6,0.5-0.9,0.7c-1.5,1.2-3.1,2.2-4.8,3
				c-0.5,0.2-1,0.4-1.5,0.6l-0.1,0.1c-0.7,0.3-1.3,0.5-2,0.7C29,51.3,23.8,51.4,19,50c-0.7-0.2-1.5-0.5-2.2-0.7
				c-0.5-0.2-0.9-0.4-1.4-0.6c-0.4-0.2-0.7-0.3-1-0.5c-1.8-1-3.6-2.1-5.1-3.5c-0.4-0.3-0.7-0.6-1-1c-0.8-0.7-1.5-1.5-2.2-2.4
				c-0.3-0.3-0.5-0.7-0.8-1.1C3.6,38,2.4,35.6,1.6,33c-0.2-0.6-0.3-1.2-0.5-1.7C-2.1,17.6,6.5,3.9,20.2,0.7c2-0.5,4-0.7,6-0.7
				c0.5,0,1.1,0,1.6,0.1l-1.6,25.5L52,25.5z"/>
			<path id="Rectangle_201" class="st3" d="M0.1,25h26c0.1,0,0.1,0.1,0.1,0.1v0.4c0,0.1-0.1,0.1-0.1,0.1h-26C0,25.6,0,25.5,0,25.5
				v-0.4C0,25,0.1,25,0.1,25z"/>
			<path id="Path_580" class="st3" d="M25.8,25.4L4,12.8c-0.2-0.1-0.2-0.3-0.1-0.5l0,0c0.1-0.2,0.3-0.2,0.5-0.1l21.8,12.6
				c0.2,0.1,0.2,0.3,0.1,0.5l0,0C26.2,25.4,25.9,25.5,25.8,25.4z"/>
			<path id="Rectangle_202" class="st3" d="M14.6,2.5L15,2.3c0.1,0,0.2,0,0.2,0.1l11.2,22.4c0,0.1,0,0.2-0.1,0.2l-0.4,0.2
				c-0.1,0-0.2,0-0.2-0.1L14.5,2.7C14.5,2.6,14.5,2.6,14.6,2.5z"/>
			<circle id="Ellipse_97" class="st1" cx="9.2" cy="59.9" r="8.8"/>
			<circle id="Ellipse_98" class="st4" cx="9.2" cy="59.9" r="7.4"/>
			<path id="Path_581" class="st1" d="M50.5,21.5L50.5,21.5c0-0.5,0.4-0.9,0.9-0.9h8.4c0.5,0,0.9,0.4,0.9,0.9l0,0
				c0,0.5-0.4,0.9-0.9,0.9h-8.4C50.9,22.4,50.5,22,50.5,21.5z"/>
			<path id="Path_582" class="st1" d="M9.2,59.9L9.2,59.9c-0.2,0-0.3-0.1-0.3-0.3v-7.8c0-0.2,0.1-0.3,0.3-0.3l0,0
				c0.2,0,0.3,0.1,0.3,0.3v7.8C9.5,59.7,9.4,59.9,9.2,59.9z"/>
			<path id="Path_583" class="st1" d="M9.2,59.9L9.2,59.9c-0.1-0.2,0-0.3,0.1-0.4l6.8-3.9c0.2-0.1,0.3,0,0.4,0.1l0,0
				c0.1,0.2,0,0.3-0.1,0.4L9.7,60C9.5,60.1,9.3,60,9.2,59.9z"/>
			<path id="Path_584" class="st1" d="M9.2,59.9L9.2,59.9c0.1-0.2,0.3-0.2,0.4-0.1l6.8,3.9c0.1,0.1,0.2,0.3,0.1,0.4l0,0
				c-0.1,0.2-0.3,0.2-0.4,0.1l-6.8-3.9C9.2,60.2,9.1,60,9.2,59.9z"/>
			<path id="Path_585" class="st1" d="M9.2,59.9L9.2,59.9c0.2,0,0.3,0.1,0.3,0.3V68c0,0.2-0.1,0.3-0.3,0.3l0,0
				c-0.2,0-0.3-0.1-0.3-0.3v-7.8C8.9,60,9.1,59.9,9.2,59.9L9.2,59.9z"/>
			<path id="Path_586" class="st1" d="M9.2,59.9L9.2,59.9c0.1,0.2,0,0.3-0.1,0.4l0,0l0,0l-6.8,3.9c-0.2,0.1-0.3,0-0.4-0.1l0,0
				c-0.1-0.2,0-0.3,0.1-0.4l6.8-3.9C9,59.7,9.1,59.7,9.2,59.9z"/>
			<path id="Path_587" class="st1" d="M9.2,59.9L9.2,59.9C9.1,60,8.9,60.1,8.8,60L2,56c-0.1-0.1-0.2-0.3-0.1-0.4l0,0
				c0.1-0.2,0.3-0.2,0.4-0.1l0,0l6.8,4C9.3,59.5,9.3,59.7,9.2,59.9L9.2,59.9z"/>
			<circle id="Ellipse_99" class="st1" cx="44.3" cy="59.9" r="8.8"/>
			<circle id="Ellipse_100" class="st4" cx="44.3" cy="59.9" r="7.4"/>
			<path id="Path_588" class="st1" d="M44.3,59.9L44.3,59.9c0.2,0,0.3-0.1,0.3-0.3v-7.8c0-0.2-0.1-0.3-0.3-0.3l0,0
				c-0.2,0-0.3,0.1-0.3,0.3v7.8C44,59.8,44.1,59.9,44.3,59.9z"/>
			<path id="Path_589" class="st1" d="M44.3,59.9L44.3,59.9c0.1-0.2,0-0.3-0.1-0.4l0,0l-6.8-3.9c-0.2-0.1-0.3,0-0.4,0.1l0,0
				c-0.1,0.2,0,0.3,0.1,0.4l6.8,3.9C44,60.1,44.2,60.1,44.3,59.9L44.3,59.9z"/>
			<path id="Path_590" class="st1" d="M44.3,59.9L44.3,59.9c-0.1-0.1-0.3-0.2-0.4-0.1l-6.8,3.9c-0.2,0.1-0.2,0.3-0.1,0.4l0,0
				c0.1,0.2,0.3,0.2,0.4,0.1l0,0l0,0l6.8-3.9C44.3,60.3,44.4,60.1,44.3,59.9L44.3,59.9z"/>
			<path id="Path_591" class="st1" d="M44.3,59.9L44.3,59.9c-0.2,0-0.3,0.1-0.3,0.3V68c0,0.2,0.1,0.3,0.3,0.3l0,0
				c0.2,0,0.3-0.1,0.3-0.3v-7.8C44.6,60.1,44.5,59.9,44.3,59.9z"/>
			<path id="Path_592" class="st1" d="M44.3,59.9L44.3,59.9c-0.1,0.2,0,0.3,0.1,0.4l6.8,3.9c0.1,0.1,0.3,0,0.4-0.1l0,0l0,0l0,0
				c0.1-0.2,0-0.3-0.1-0.4l-6.8-3.9C44.6,59.7,44.4,59.8,44.3,59.9z"/>
			<path id="Path_593" class="st1" d="M44.3,59.9L44.3,59.9c0.1,0.2,0.3,0.2,0.4,0.1l0,0l0,0l6.8-4c0.2-0.1,0.2-0.3,0.1-0.4l0,0l0,0
				c-0.1-0.2-0.3-0.2-0.4-0.1l0,0l-6.8,4C44.2,59.6,44.2,59.8,44.3,59.9z"/>
		</g>
	</g>
</g>
<g id="discover3_1_">
	<g id="discover3" transform="translate(0 206.474)">
		<circle id="Ellipse_101" class="st0" cx="53.2" cy="53.2" r="53.2"/>
		<path id="Path_594" class="st1" d="M76.5,41.3c0-1.2-1-2.2-2.2-2.3H33.4c-1.2,0-2.2,1-2.2,2.3v9.4c0,0.7,0.1,1.3,0.2,2
			c-0.1-0.5-0.2-1.1-0.2-1.7v18.4c0,2.2,1.7,3.9,3.8,4h37.6c2.2-0.1,3.9-1.8,3.8-4V50.9c0,0.6-0.1,1.1-0.2,1.7
			c0.1-0.6,0.2-1.3,0.2-2L76.5,41.3z M31.8,53.9c-0.2-0.4-0.3-0.8-0.4-1.2C31.5,53.1,31.7,53.5,31.8,53.9z M75.9,53.9
			c0.1-0.4,0.3-0.8,0.4-1.2C76.2,53.1,76.1,53.5,75.9,53.9L75.9,53.9z"/>
		<path id="Path_595" class="st2" d="M60,46.9H47.7c-2.8,0-5-2.2-5-5V36c0-2.8,2.2-5,5-5H60c2.8,0,5,2.2,5,5v5.9
			C65,44.7,62.8,46.9,60,46.9z M47.7,34.6c-0.8,0-1.5,0.7-1.5,1.5V42c0,0.8,0.7,1.5,1.5,1.5H60c0.8,0,1.5-0.7,1.5-1.5v-6
			c0-0.8-0.7-1.5-1.5-1.5L47.7,34.6z"/>
		<path id="Path_596" class="st2" d="M78.3,40.2c0-0.7-1.1-1.3-2.4-1.3H31.3c-1.3,0-2.4,0.6-2.4,1.3v5.2c0,0.4,0.1,0.7,0.2,1.1
			c-0.1-0.3-0.2-0.6-0.2-0.9v10.3c0,1.2,1.9,2.2,4.2,2.2h41.1c2.3,0,4.2-1,4.2-2.2V45.7c0,0.3-0.1,0.6-0.2,0.9
			c0.1-0.4,0.2-0.7,0.2-1.1L78.3,40.2L78.3,40.2z M29.5,47.3c-0.2-0.2-0.3-0.4-0.4-0.7C29.2,46.9,29.3,47.1,29.5,47.3z M77.7,47.3
			c0.1-0.2,0.3-0.4,0.4-0.7C78,46.9,77.8,47.1,77.7,47.3L77.7,47.3z"/>
		<path id="Path_597" class="st5" d="M49.2,60v-3.6c0-1.3,1.1-2.4,2.4-2.4h4.5c1.3,0,2.4,1.1,2.4,2.4V60c0,1.3-1.1,2.4-2.4,2.4h-4.5
			C50.3,62.3,49.2,61.3,49.2,60z"/>
	</g>
</g>
<g id="discover2_1_">
	<g id="discover2" transform="translate(66.951)">
		<g id="Group_430">
			<g id="Ellipse_18">
				<g id="Group_548">
					<circle id="Ellipse_102" class="st0" cx="51" cy="51" r="51"/>
				</g>
			</g>
		</g>
		<path id="Path_598" class="st5" d="M90,52.1L68.1,28.5c-0.5-0.5-1-1-1.6-1.4c-0.7-0.5-1.4-0.8-2.2-1.1c-0.3-0.1-0.6-0.2-1-0.3
			c-0.6-0.2-1.3-0.2-1.9-0.3h-0.1l-12.6-0.1c-0.3,0-0.7,0-1,0.1c-0.8,0.1-1.5,0.3-2.2,0.7c-0.5,0.2-0.9,0.5-1.3,0.8
			c-0.8,0.6-1.4,1.3-1.9,2.1c-0.6,1-0.9,2.1-1,3.2l-0.9,12.6c-0.2,2.5,0.7,5,2.5,6.9l21.9,23.6c1.6,1.7,4.2,1.8,5.9,0.2l19-17.5
			C91.4,56.5,91.5,53.8,90,52.1z"/>
		<g id="Group_550" transform="translate(21.199 25.398)">
			<g id="Group_549">
				<path id="Path_599" class="st6" d="M35.4,54.7l-6.9-22l1.9-0.6c0.6-0.2,0.9-0.8,0.7-1.3l0,0l-0.9-2.9c6-7.3,4.9-18-2.4-24
					S9.8-1,3.8,6.3s-4.9,18,2.4,24c1.8,1.5,3.9,2.6,6.1,3.2l0.9,2.9c0.2,0.6,0.8,0.9,1.3,0.7l1.9-0.6l0.9,2.9L16,41.8
					c-0.3,0.5-0.1,1.2,0.4,1.4l2.4,1.3l2,6.3l-1.3,2.4c-0.3,0.5-0.1,1.2,0.4,1.4l0,0l2.4,1.3l0.8,2.5c0.1,0.3,0.3,0.5,0.5,0.6
					l6.6,3.5c0.5,0.3,1.2,0.1,1.4-0.4l0,0l3.5-6.6C35.5,55.2,35.5,54.9,35.4,54.7z M12.3,14.6c-2.6-1.4-3.6-4.6-2.2-7.2
					s4.6-3.6,7.2-2.2c2.6,1.4,3.6,4.6,2.2,7.2l0,0l0,0C18.1,14.9,14.9,15.9,12.3,14.6L12.3,14.6z"/>
			</g>
		</g>
		<path id="Path_600" class="st1" d="M53.3,23.9c-0.6,0.1-1.3,0.3-1.9,0.5h-0.1c0-0.1-0.1-0.1-0.1-0.2c-3.1-3.7-8.5-4.2-12.3-1.2
			c-2.8,2.3-3.8,6-2.7,9.4c0.3,1,0.8,2,1.5,2.8c0.8,1,1.8,1.8,2.9,2.3l-0.9,1.7c-1.4-0.7-2.6-1.7-3.6-2.9c-0.3-0.4-0.6-0.8-0.9-1.3
			c-3-5.1-1.3-11.6,3.8-14.6c4.6-2.7,10.4-1.6,13.7,2.5C53,23.4,53.1,23.7,53.3,23.9z"/>
		<g id="Group_551" transform="translate(44.84 57.425)">
			<path id="Path_601" class="st4" d="M7.6,24c-0.6,0-1-0.4-1.2-0.9L0.1,1.6c-0.2-0.7,0.2-1.4,0.8-1.5c0.7-0.2,1.4,0.2,1.5,0.8
				l6.3,21.5C9,23.1,8.6,23.8,7.9,24C7.8,24,7.7,24,7.6,24z"/>
		</g>
	</g>
</g>
<g id="discover1_1_">
	<g id="discover1" transform="translate(377.722 25.927)">
		<g id="Group_554">
			<g id="Group_553">
				<g id="Group_458">
					<circle id="Ellipse_18-3" class="st0" cx="46.3" cy="46.3" r="46.3"/>
				</g>
			</g>
		</g>
		<g id="Group_557" transform="translate(14.807 25.375)">
			<path id="Path_602" class="st2" d="M8.8,19.5H7.7c-3.1,0-5.5-2.5-5.5-5.6c0-0.6,0.5-1.1,1.1-1.1l0,0h3.9v-2.2H3.3
				c-1.8,0-3.3,1.5-3.3,3.3c0,4.3,3.4,7.8,7.7,7.8H11L8.8,19.5z"/>
			<path id="Path_603" class="st2" d="M5.5,7.8c0,6.5,1.9,12.9,5.4,18.4l0.7,1.1v0.6h14.3v-0.6l0.7-1.1C30.1,20.7,32,14.3,32,7.8
				C32,7.8,5.5,7.8,5.5,7.8z"/>
			<path id="Path_604" class="st1" d="M5.5,27.2h26.4c0,1.2-1,2.2-2.2,2.2h-22C6.5,29.5,5.5,28.5,5.5,27.2L5.5,27.2L5.5,27.2z"/>
			<g id="Group_555" transform="translate(14.138)">
				<path id="Path_605" class="st5" d="M4.6,6.7C4.3,6.7,4,6.4,4,6.1C4,6,4.1,5.8,4.2,5.7l0.2-0.2c0.4-0.4,0.4-1.1,0-1.6
					c0,0-0.1-0.1-0.2-0.1c-1-0.7-1.3-2-0.6-3c0.1-0.1,0.2-0.2,0.3-0.3l0.2-0.2c0.2-0.2,0.6-0.2,0.8,0l0,0c0.2,0.2,0.2,0.6,0,0.8l0,0
					L4.7,1.2c-0.4,0.4-0.4,1.1,0,1.5c0.1,0,0.1,0.1,0.2,0.1c1,0.7,1.3,2,0.6,3.1C5.4,6.1,5.3,6.2,5.2,6.3L5,6.5
					C4.9,6.6,4.7,6.7,4.6,6.7L4.6,6.7z"/>
				<path id="Path_606" class="st5" d="M7.9,6.7c-0.3,0-0.6-0.3-0.6-0.6c0-0.1,0.1-0.3,0.2-0.4l0.2-0.2c0.4-0.4,0.4-1.1,0-1.6
					c0,0-0.1-0.1-0.2-0.1c-1-0.7-1.3-2-0.6-3C7,0.6,7.1,0.5,7.2,0.4l0.2-0.2C7.6,0,8,0,8.2,0.2l0,0c0.2,0.2,0.2,0.6,0,0.8l0,0L8,1.2
					C7.6,1.6,7.6,2.3,8,2.8c0.1,0,0.1,0.1,0.2,0.1c1,0.7,1.3,2,0.6,3.1C8.7,6.1,8.6,6.2,8.5,6.3L8.3,6.5C8.2,6.6,8,6.7,7.9,6.7
					L7.9,6.7z"/>
				<path id="Path_607" class="st5" d="M1.3,6.7C1,6.7,0.7,6.4,0.7,6.1c0-0.1,0.1-0.3,0.2-0.4l0.2-0.2c0.4-0.4,0.4-1.1,0-1.5
					c0,0-0.1-0.1-0.2-0.1c-1-0.7-1.3-2-0.6-3c0.1-0.1,0.2-0.2,0.3-0.3l0.2-0.2C1.1,0,1.4,0,1.7,0.2l0,0c0.2,0.2,0.2,0.6,0,0.8l0,0
					L1.4,1.2C1,1.6,1,2.3,1.4,2.8c0.1,0.1,0.1,0.1,0.2,0.1C2.6,3.6,2.9,5,2.2,6C2.1,6.1,2,6.2,1.9,6.3L1.7,6.5
					C1.6,6.6,1.4,6.7,1.3,6.7L1.3,6.7z"/>
			</g>
			<g id="Group_556" transform="translate(25.872 13.869)">
				<path id="Path_608" class="st4" d="M1.8,6.1C2,6.1,2.2,6,2.3,5.8c0.6-1.7,1.1-3.4,1.5-5.1C3.9,0.4,3.7,0.1,3.4,0
					C3.2-0.1,2.8,0.1,2.8,0.4l0,0l0,0v0.1C2.4,2.1,1.9,3.8,1.3,5.4C1.2,5.7,1.3,6,1.6,6.1l0,0C1.7,6.1,1.7,6.1,1.8,6.1z"/>
				<path id="Path_609" class="st4" d="M0.5,9C0.8,9,1,8.9,1,8.7C1.1,8.5,1.2,8.3,1.3,8c0.1-0.3,0-0.6-0.2-0.7
					c-0.3-0.1-0.6,0-0.7,0.2l0,0l0,0L0.1,8.2C0,8.5,0.1,8.8,0.3,8.9l0,0C0.4,9,0.5,9,0.5,9z"/>
			</g>
		</g>
		<g id="Group_560" transform="translate(40.229 31.646)">
			<path id="Path_610" class="st6" d="M23.4,19.5h1.1c3.1,0,5.6-2.5,5.6-5.6l0,0c0-0.6-0.5-1.1-1.1-1.1l0,0h-4v-2.2h3.9
				c1.8,0,3.3,1.5,3.3,3.3l0,0l0,0c0,4.3-3.5,7.8-7.8,7.8h-3.3L23.4,19.5z"/>
			<path id="Path_611" class="st6" d="M26.7,7.8c0,6.5-1.9,12.9-5.4,18.4l-0.7,1.1v0.6H6.1v-0.6l-0.7-1.1C1.9,20.7,0,14.3,0,7.8
				H26.7z"/>
			<path id="Path_612" class="st1" d="M26.7,27.2H0c0,1.2,1,2.2,2.2,2.2h22.2C25.7,29.5,26.7,28.5,26.7,27.2z"/>
			<g id="Group_558" transform="translate(8.722)">
				<path id="Path_613" class="st5" d="M4.6,6.7C4.3,6.7,4,6.5,4,6.1C4,6,4.1,5.8,4.2,5.7l0.2-0.2c0.4-0.4,0.4-1.1,0-1.6
					c0,0-0.1-0.1-0.2-0.1c-1-0.7-1.3-2-0.6-3C3.8,0.6,3.9,0.5,4,0.4l0.2-0.2C4.4,0,4.8,0,5,0.2C5.2,0.4,5.2,0.8,5,1l0,0l0,0L4.8,1.2
					c-0.4,0.4-0.4,1.1,0,1.5l0,0l0,0c0,0.1,0.1,0.1,0.2,0.1c1,0.7,1.3,2,0.6,3l0,0C5.5,6,5.4,6.2,5.3,6.3L5,6.5
					C4.9,6.6,4.8,6.7,4.6,6.7L4.6,6.7z"/>
				<path id="Path_614" class="st5" d="M8,6.7c-0.3,0-0.6-0.2-0.6-0.6c0-0.1,0.1-0.3,0.2-0.4l0.2-0.2c0.4-0.4,0.4-1.1,0-1.5l0,0
					c0-0.1-0.1-0.2-0.2-0.2c-1-0.7-1.3-2-0.6-3.1c0.1-0.1,0.2-0.2,0.3-0.3l0.2-0.2C7.7,0,8.1,0,8.3,0.2s0.2,0.6,0,0.8l0,0l0,0
					L8.1,1.2c-0.4,0.4-0.4,1.1,0,1.5c0.1,0.1,0.1,0.1,0.2,0.1c1,0.7,1.3,2,0.6,3.1C8.8,6.1,8.7,6.2,8.6,6.3L8.4,6.5
					C8.2,6.6,8.1,6.7,8,6.7L8,6.7z"/>
				<path id="Path_615" class="st5" d="M1.3,6.7C1,6.7,0.7,6.4,0.7,6.1c0-0.1,0.1-0.3,0.2-0.4l0.2-0.2c0.4-0.4,0.4-1.1,0-1.5
					C1.1,3.9,1,3.8,1,3.8c-1-0.7-1.3-2-0.6-3c0.1-0.1,0.2-0.2,0.3-0.3l0.2-0.2c0.2-0.2,0.6-0.2,0.8,0s0.2,0.6,0,0.8l0,0l0,0L1.4,1.2
					C1,1.6,1,2.3,1.4,2.7l0,0c0.1,0.1,0.1,0.1,0.2,0.1c1,0.7,1.3,2,0.6,3C2.1,6,2,6.2,1.9,6.3L1.7,6.5C1.6,6.6,1.4,6.7,1.3,6.7
					L1.3,6.7z"/>
			</g>
			<g id="Group_559" transform="translate(2.232 13.866)">
				<path id="Path_616" class="st4" d="M2.1,6.2C1.8,6.2,1.6,6,1.6,5.8C0.9,4.1,0.4,2.4,0,0.7C-0.1,0.4,0.1,0.1,0.4,0S1,0.1,1.1,0.4
					l0,0v0.1C1.5,2.2,2,3.8,2.6,5.4c0.1,0.3,0,0.6-0.3,0.7C2.2,6.1,2.2,6.1,2.1,6.2L2.1,6.2z"/>
				<path id="Path_617" class="st4" d="M3.3,9C3.1,9,2.9,8.9,2.8,8.7C2.7,8.5,2.6,8.3,2.5,8.1c-0.1-0.3,0-0.6,0.3-0.8s0.6,0,0.8,0.3
					l0,0c0,0.2,0.1,0.4,0.2,0.6c0.1,0.3,0,0.6-0.3,0.7l0,0C3.5,9,3.4,9,3.3,9L3.3,9z"/>
			</g>
		</g>
	</g>
</g>
</svg>
