<svg id="citymask" xmlns="http://www.w3.org/2000/svg" width="790" height="913" viewBox="0 0 790 913">
  <path id="Subtraction_1" data-name="Subtraction 1" d="M710.5,1237A513.121,513.121,0,0,1,436,1157.916V324h602.751a515.387,515.387,0,0,1,158.16,226.352,512.432,512.432,0,0,1,25.735,112.012,523.059,523.059,0,0,1,.693,111.843,516.846,516.846,0,0,1-7.812,51.184c-3.4,16.608-7.672,33.229-12.7,49.4-4.974,15.992-10.806,31.927-17.335,47.362-6.468,15.291-13.771,30.452-21.708,45.062-7.88,14.506-16.567,28.806-25.821,42.5-9.209,13.632-19.194,26.984-29.676,39.685-10.457,12.671-21.651,24.987-33.271,36.608s-23.936,22.814-36.608,33.271c-12.7,10.481-26.052,20.466-39.685,29.676-13.7,9.254-28,17.941-42.5,25.821-14.61,7.936-29.771,15.24-45.062,21.707-15.434,6.528-31.368,12.36-47.362,17.335-16.174,5.03-32.8,9.3-49.4,12.7a516.815,516.815,0,0,1-51.184,7.812A523.787,523.787,0,0,1,710.5,1237Z" transform="translate(-436 -324)" fill="#071828"/>
</svg>
