<?xml version="1.0" encoding="utf-8"?>
<!-- Generator: Adobe Illustrator 23.0.1, SVG Export Plug-In . SVG Version: 6.00 Build 0)  -->
<svg version="1.1" xmlns="http://www.w3.org/2000/svg" xmlns:xlink="http://www.w3.org/1999/xlink" x="0px" y="0px"
	 viewBox="0 0 550 271" style="enable-background:new 0 0 550 271;" xml:space="preserve">
<style type="text/css">
	.st0{fill:#EBF3FF;}
	.st1{clip-path:url(#SVGID_2_);}
	.st2{fill:#E829A3;}
	.st3{fill:#F2B8D0;}
	.st4{fill:#E0D3CE;}
	.st5{fill:#FFFFFF;stroke:#28272D;stroke-miterlimit:10;}
	.st6{clip-path:url(#SVGID_4_);}
	.st7{fill:#BE1FC9;}
	.st8{fill:#A57E6F;}
	.st9{fill:#FFFFFF;}
	.st10{fill:#25353F;}
	.st11{clip-path:url(#SVGID_6_);}
	.st12{fill:#FFFFFF;stroke:#28272D;stroke-width:2;stroke-miterlimit:10;}
	.st13{fill:#000201;}
	.st14{fill:#D5887A;}
	.st15{clip-path:url(#SVGID_8_);}
	.st16{fill:#081828;}
</style>
<g id="avatar1">
	<g id="Group_504" transform="translate(0 50.822)">
		<ellipse id="Ellipse_16" class="st0" cx="59.3" cy="39.2" rx="40.6" ry="40.6"/>
		<g id="Group_179" transform="translate(0.243)">
			<g>
				<defs>
					<circle id="SVGID_1_" cx="59.2" cy="38.7" r="40"/>
				</defs>
				<clipPath id="SVGID_2_">
					<use xlink:href="#SVGID_1_"  style="overflow:visible;"/>
				</clipPath>
				<g id="Group_178" class="st1">
					<g id="Group_177" transform="translate(5.461 4.864)">
						<g id="Group_173" transform="translate(2.868)">
							<path id="Path_136" class="st2" d="M62.7,47H39.1c-2,0-3.6-1.6-3.6-3.6V23.6c0-8.5,6.9-15.4,15.4-15.4
								c8.5,0,15.4,6.9,15.4,15.4v19.7C66.3,45.3,64.7,47,62.7,47L62.7,47z"/>
							<path id="Path_137" class="st2" d="M66.3,23.6v19.7c0,2-1.6,3.6-3.6,3.6h-4.1c2,0,3.6-1.6,3.6-3.6V23.6
								c0-7.7-5.7-14.3-13.4-15.3c0.7-0.1,1.4-0.1,2.1-0.1C59.4,8.2,66.3,15.1,66.3,23.6L66.3,23.6L66.3,23.6z"/>
						</g>
						<g id="Group_175" transform="translate(2.528 6.572)">
							<g id="Group_174">
								<path id="Path_138" class="st3" d="M64.5,27.4c1.8,0.1,3.3-1.3,3.3-3.1c0.1-1.8-1.3-3.3-3.1-3.3c-0.1,0-0.1,0-0.2,0h-2.1
									v6.4H64.5z"/>
								<path id="Path_139" class="st3" d="M38,27.4c-1.8-0.1-3.2-1.5-3.1-3.3C35,22.4,36.3,21,38,21h2.1v6.4H38z"/>
							</g>
						</g>
						<path id="Path_140" class="st4" d="M78,76.8h-4.8l-3.4-17.7c-0.7-3.4-2.9-6.3-6-7.9l4.2,1.3c3.6,1.1,6.2,4.2,6.9,7.8L78,76.8z
							"/>
						<path id="Path_141" class="st3" d="M61.9,50.6c-0.3,4.5-4.2,7.9-8.7,7.6c-4.1-0.3-7.3-3.5-7.6-7.6l8.2-2.6L61.9,50.6z"/>
						<path id="Path_142" class="st3" d="M49.2,40.9h9.1v11.1h-9.1V40.9z"/>
						<path id="Path_143" class="st3" d="M53.8,16.1c-6.7,0-12,5.4-12,12l0,0v5.2c0,6.7,5.4,12,12,12s12-5.4,12-12v-5.2
							C65.8,21.5,60.4,16.1,53.8,16.1L53.8,16.1z"/>
						<path id="Path_144" class="st5" d="M78,76.8l-3.1-16.4c-0.7-3.7-3.4-6.7-6.9-7.8l-7.2-2.3c-0.3,3.9-3.7,6.7-7.6,6.4
							c-3.4-0.3-6.1-3-6.4-6.4l-7.2,2.3c-3.6,1.1-6.2,4.2-6.9,7.8l-2.8,14.5c-0.2,0.9,0.4,1.7,1.3,1.9c0.1,0,0.2,0,0.3,0L78,76.8
							L78,76.8z"/>
						<path id="Path_145" class="st2" d="M54.1,13.9v5.8c0,5.2-4.2,9.4-9.4,9.4H40c-2.3,0-4.2-1.9-4.2-4.3c0-0.2,0-0.4,0-0.6
							c0.1-0.4,0.4-0.7,0.8-0.7h3.8C42.3,17.6,47.9,13.6,54.1,13.9z"/>
						<g id="Group_176" transform="translate(10.046 18.748)">
							<path id="Path_146" class="st5" d="M55.9,48.3c0.8-0.8,0.8-2.1-0.1-2.9c-0.7-0.6-1.7-0.8-2.5-0.3c-0.2,0.1-0.5,0.1-0.7,0
								c-1-0.6-2.2-0.3-2.8,0.7c-0.5,0.8-0.4,1.8,0.3,2.5l2.6,2.6c0.2,0.2,0.4,0.2,0.6,0c0,0,0,0,0,0L55.9,48.3z"/>
						</g>
					</g>
				</g>
			</g>
		</g>
	</g>
</g>
<g id="avatar3">
	<g id="Group_505" transform="translate(95.838)">
		<ellipse id="Ellipse_18" class="st0" cx="168.9" cy="69.6" rx="51.9" ry="51.9"/>
		<g id="Group_186">
			<g>
				<defs>
					<circle id="SVGID_3_" cx="168.9" cy="69.6" r="51.9"/>
				</defs>
				<clipPath id="SVGID_4_">
					<use xlink:href="#SVGID_3_"  style="overflow:visible;"/>
				</clipPath>
				<g id="Group_185" class="st6">
					<g id="Group_184" transform="translate(10.253 10.558)">
						<path id="Path_148" class="st7" d="M188.1,115.7h-61l4.1-21.5c0.9-4.8,4.4-8.8,9.1-10.3l9.4-3c0.4,5.1,4.9,8.8,9.9,8.4
							c4.5-0.4,8-3.9,8.4-8.4l9.4,3c4.7,1.5,8.2,5.4,9.1,10.3l3.6,19c0.2,1.2-0.5,2.3-1.7,2.5C188.4,115.7,188.2,115.7,188.1,115.7z
							"/>
						<path id="Path_149" class="st8" d="M169.6,81.4c-0.4,5.9-5.6,10.4-11.5,9.9c-5.3-0.4-9.5-4.6-9.9-9.9l10.7-3.4L169.6,81.4z"/>
						<g id="Group_183" transform="translate(18.205 34.791)">
							<path id="Path_155" class="st9" d="M154.9,67.7c1.2-1.2,1.2-3.3,0-4.5c-1-1-2.7-1.2-3.9-0.4c-0.3,0.2-0.8,0.2-1.1,0
								c-1.5-0.9-3.4-0.5-4.4,1c-0.8,1.3-0.6,2.9,0.4,3.9l4.1,4.1c0.2,0.2,0.6,0.2,0.9,0L154.9,67.7z"/>
						</g>
						<g id="Group_491" transform="translate(-436.03 -350.364)">
							<g id="Group_492" transform="translate(1 3.218)">
								<g id="Group_488" transform="translate(443.207 361.858)">
									<circle id="Ellipse_78" class="st8" cx="138.8" cy="46.2" r="3.6"/>
								</g>
								<g id="Group_489" transform="translate(454.141 361.858)">
									<circle id="Ellipse_79" class="st8" cx="149.5" cy="46.2" r="3.6"/>
								</g>
								<g id="Group_490" transform="translate(447.215 369.132)">
									<path id="Path_471" class="st8" d="M151.7,49.9c-1.4,0.9-3,1.6-4.6,2c-1.5,0.2-3-0.1-4.4-0.8l-2.6-1.4l-1.1,11.9l0.3,0.2
										c3.8,2.9,9.1,2.9,12.9,0.1l0.6-0.4L151.7,49.9z"/>
								</g>
								<path id="Path_472" class="st8" d="M604.3,401c0,3.8-0.4,7.6-1.2,11.3c-0.7,2.7-2.5,4.9-4.9,6.2l-0.5,0.3
									c-2.7,1.6-6.1,1.7-8.9,0.1l0,0c-2.7-1.3-4.6-3.7-5.3-6.6c-0.7-3.7-1.1-7.5-1.2-11.2c0,0-1.5-12.3,10.3-12.2
									C604.5,389.1,604.3,401,604.3,401z"/>
								<path id="Path_473" class="st10" d="M604.2,404.5c0,0-1.2,7.8-4.6,7.1c-0.6-0.1-1.2-0.3-1.7-0.5c-1.5-0.5-3.1-0.8-4.7-0.8
									H593c-1.6,0-3.3,0.3-4.8,0.8c-0.6,0.2-1.3,0.4-1.9,0.5c-3.4,0.7-3.7-7.2-3.7-7.2c-0.9,3.6-0.8,7.4,0.4,11
									c0.9,2.4,2.7,4.2,5,5.2l0,0l0.2,0.1h0c3,1.2,6.3,1.3,9.3,0.3l0,0c2.8-0.8,5.1-2.8,6.1-5.6
									C604.8,411.9,605,408.1,604.2,404.5z"/>
								<path id="Path_474" class="st10" d="M599.5,392.1c0.8,0.3,1.5,0.5,2.2,0.9c-0.4-0.8-1-1.6-1.7-2.2c-0.8-0.7-1.4-1.6-1.9-2.6
									c-1-2.1-3.1-3.5-5.4-3.6c-2.5,0.1-4.6,1.6-5.6,3.9c-0.4,0.9-0.9,1.8-1.6,2.5c-0.6,0.6-1.1,1.2-1.5,2
									c0.4-0.2,0.9-0.5,1.4-0.6l0,0c0.2-0.1,0.3-0.1,0.5-0.2c0.6-0.2,1.2,0,1.7,0.4l0,0c2.9,2.3,7.1,2.3,10,0
									C598.2,392.2,598.8,392,599.5,392.1z"/>
							</g>
						</g>
					</g>
				</g>
			</g>
		</g>
	</g>
</g>
<g id="avatar4">
	<g id="Group_506" transform="translate(199.442 37.44)">
		<path id="Path_179" class="st0" d="M279.2,52.5c25.4,0,46,20.6,46,46s-20.6,46-46,46c-25.4,0-46-20.6-46-46c0,0,0,0,0,0
			C233.3,73,253.8,52.5,279.2,52.5z"/>
		<g id="Group_196">
			<g>
				<defs>
					<circle id="SVGID_5_" cx="279.2" cy="97.7" r="46"/>
				</defs>
				<clipPath id="SVGID_6_">
					<use xlink:href="#SVGID_5_"  style="overflow:visible;"/>
				</clipPath>
				<g id="Group_195" class="st11">
					<g id="Group_194" transform="translate(6.756 8.519)">
						<g id="Group_192" transform="translate(0 2.975)">
							<path id="Path_156" class="st12" d="M293.2,136h-45.5l3.1-16.4c0.7-3.7,3.3-6.7,6.8-7.8l7-2.3c0.3,2.8,2.2,5.2,4.9,6.1
								c0.6,0.2,1.3,0.3,2,0.3c3.6,0,6.5-2.8,6.8-6.4l7,2.3c3.5,1.2,6.1,4.2,6.8,7.8l2.7,14.5c0.2,0.9-0.4,1.7-1.3,1.9
								C293.4,136,293.3,136,293.2,136L293.2,136z"/>
							<g id="Group_190" transform="translate(2.432)">
								<g id="Group_189">
									<path id="Path_157" class="st3" d="M276.9,109.8c-0.3,4.5-4.1,7.9-8.5,7.6c-4-0.3-7.2-3.5-7.4-7.6l8-2.6L276.9,109.8z"/>
									<path id="Path_158" class="st3" d="M264.5,100h8.9v11.1h-8.9V100z"/>
									<g id="Group_188" transform="translate(0 3.154)">
										<path id="Path_159" class="st3" d="M281.9,90c1.7,0,3.1-1.4,3.1-3.2s-1.4-3.2-3.1-3.2h-2.1V90H281.9z"/>
										<path id="Path_160" class="st3" d="M256,90c-1.7,0-3.1-1.4-3.1-3.2s1.4-3.2,3.1-3.2h2.1V90H256z"/>
									</g>
									<path id="Path_161" class="st3" d="M280.7,86.7v5.8c-0.2,6.7-5.7,11.9-12.1,11.6c-6.2-0.2-11.2-5.3-11.4-11.6v-5.8l1.1-0.9
										c0.5-0.4,0.7-0.9,0.7-1.5v-5.6c6.3-2.7,13.5-2.7,19.8,0v5.6c0,0.6,0.3,1.2,0.7,1.5L280.7,86.7z"/>
								</g>
							</g>
							<g id="Group_191" transform="translate(8.585 14.081)">
								<path id="Path_162" class="st5" d="M273.4,111.8c0.9-0.9,0.9-2.5,0-3.4c-0.8-0.8-2-1-3-0.3c-0.3,0.2-0.6,0.2-0.8,0
									c-1.1-0.7-2.6-0.4-3.3,0.8c-0.6,1-0.4,2.2,0.3,3l3,3.1c0.2,0.2,0.5,0.2,0.6,0L273.4,111.8z"/>
							</g>
						</g>
						<g id="Group_193" transform="translate(1.784)">
							<path id="Path_163" class="st13" d="M256.6,75c0,0-6-1-5,6.2c0.7,4.3,3.7,7.9,7.7,9.4l0.6-14.6L256.6,75z"/>
							<path id="Path_164" class="st13" d="M259.3,90.7L259.3,90.7c0.7-3.5,2.4-6.6,4.8-9.1c4.2-3.2,8.5-2.6,15.6,1.5
								c-1.1-5-5.2-8.6-10.1-9.2c-8.9-1.4-15.2,6.3-15.1,10.2C254.5,88,259.3,90.7,259.3,90.7z"/>
							<path id="Path_165" class="st13" d="M263.6,82.1c2.6-2.4,6.5-2.4,9.1,0c3.9,3.2,9.5,5,12.1-0.1c2.6-5.1-0.4-12.6-11.3-8.9
								S263.6,82.1,263.6,82.1z"/>
							<path id="Path_166" class="st13" d="M274.5,72.6c-2.5,1-5.4,0.5-7.5-1.2c-3.6-3-10.7-1.1-10.4,3.6l7.6,2.4l14.1-0.6
								L274.5,72.6z"/>
						</g>
						<path id="Path_167" class="st14" d="M289.4,82.8"/>
					</g>
				</g>
			</g>
		</g>
	</g>
</g>
<g id="avatar2">
	<g id="Group_507" transform="translate(56.815 72.504)">
		<circle id="Ellipse_22" class="st0" cx="43" cy="152.8" r="36.9"/>
		<g id="Group_205" transform="translate(1.13 2.06)">
			<g>
				<defs>
					<circle id="SVGID_7_" cx="41.9" cy="152.4" r="34.8"/>
				</defs>
				<clipPath id="SVGID_8_">
					<use xlink:href="#SVGID_7_"  style="overflow:visible;"/>
				</clipPath>
				<g id="Group_204" class="st15">
					<g id="Group_203" transform="translate(7.014 3.299)">
						<g id="Group_201">
							<path id="Path_168" class="st16" d="M40.6,120.4c1-0.1,2.1,0,3.1,0.1c5.2,0.6,9.4,4.7,10.2,9.8c0.9,5.7-1.6,11.2-2.5,16.7
								c-1,6.8-1.2,13.7-0.7,20.6c-1.5,0.1-16-3.7-16.3-4.5c-0.6-2.8-0.3-5.7,0.8-8.3c1-2.2,2.4-4.3,4.2-6c1.3-1.2,2.3-2.7,2.7-4.4
								c0.1-0.9,0.1-1.8-0.1-2.7c-1-7.3-2.5-16.2-8.4-16.6c-0.6,0-2.2,0-1.9-1.1c0.2-0.5,0.6-0.9,1.1-1.1
								C35.2,121.5,37.8,120.7,40.6,120.4z"/>
							<g id="Group_198" transform="translate(3.914 2.053)">
								<path id="Path_169" class="st16" d="M33.6,150.6l-7.9-0.9c-1.7,0-4.9-0.8-4.9-2.2l-4.5-13.9c0-6.2,6-11.3,13.4-11.3
									S43,127.2,43,133.4l-6.3,15.8c0,1.5-0.1,0.4-1.8,0.4L33.6,150.6z"/>
							</g>
							<g id="Group_200" transform="translate(3.438 11.236)">
								<g id="Group_199">
									<path id="Path_170" class="st3" d="M41.6,135.4c1.5,0,2.8-1.3,2.8-2.8c0-1.5-1.3-2.8-2.8-2.8l0,0h-1.9v5.6H41.6z"/>
									<path id="Path_171" class="st3" d="M18.6,135.4c-1.5,0-2.8-1.3-2.8-2.8c0-1.5,1.3-2.8,2.8-2.8h1.9v5.6H18.6z"/>
								</g>
							</g>
							<path id="Path_172" class="st4" d="M54.6,183.8h-4.2l-2.9-15.4c-0.6-3-2.5-5.5-5.2-6.8l3.6,1.2c3.1,1,5.4,3.6,6,6.8
								L54.6,183.8z"/>
							<path id="Path_173" class="st3" d="M40.6,161c-0.3,3.9-3.7,6.9-7.6,6.6c-3.5-0.3-6.3-3.1-6.6-6.6l7.1-2.3L40.6,161z"/>
							<path id="Path_174" class="st3" d="M29.6,152.6h7.9v9.7h-7.9V152.6z"/>
							<path id="Path_175" class="st3" d="M33.5,131.1c-5.8,0-10.5,4.7-10.5,10.5v0v4.5c0,5.8,4.7,10.5,10.5,10.5S44,151.8,44,146.1
								v-4.5C44,135.8,39.3,131.1,33.5,131.1L33.5,131.1z"/>
							<path id="Path_176" class="st2" d="M54.7,183.8L52,169.5c-0.6-3.2-2.9-5.8-6-6.8l-6.2-2c-0.3,3.4-3.2,5.8-6.6,5.5
								c-3-0.3-5.3-2.6-5.5-5.5l-6.2,2c-3.1,1-5.4,3.6-6,6.8L13,182.1c-0.1,0.8,0.4,1.5,1.1,1.7c0.1,0,0.2,0,0.3,0H54.7L54.7,183.8z
								"/>
							<path id="Path_177" class="st16" d="M33.8,129.1v5c0,4.5-3.6,8.1-8.1,8.1h-4.1c-2,0-3.7-1.7-3.7-3.7c0-0.2,0-0.4,0-0.5
								c0.1-0.3,0.4-0.6,0.7-0.6h3.3C23.6,132.3,28.5,128.9,33.8,129.1z"/>
						</g>
						<g id="Group_202" transform="translate(13.947 28.492)">
							<path id="Path_178" class="st9" d="M31.3,147.9c0.8-0.8,0.8-2.2,0-3.1c-0.7-0.7-1.8-0.8-2.7-0.3c-0.2,0.1-0.5,0.1-0.8,0
								c-1-0.6-2.3-0.3-3,0.7c-0.5,0.9-0.4,2,0.3,2.7l2.8,2.8c0.2,0.2,0.4,0.2,0.6,0c0,0,0,0,0,0L31.3,147.9z"/>
						</g>
					</g>
				</g>
			</g>
		</g>
	</g>
</g>
</svg>
