<?xml version="1.0" encoding="utf-8"?>
<!-- Generator: Adobe Illustrator 23.0.1, SVG Export Plug-In . SVG Version: 6.00 Build 0)  -->
<svg version="1.1" id="Capa_1" xmlns="http://www.w3.org/2000/svg" xmlns:xlink="http://www.w3.org/1999/xlink" x="0px" y="0px"
	 viewBox="0 0 490.7 490.7" style="enable-background:new 0 0 490.7 490.7;" xml:space="preserve">
<style type="text/css">
	.st0{fill:#E829A3;}
	.st1{fill:url(#SVGID_1_);}
	.st2{fill:url(#SVGID_2_);}
	.st3{fill:url(#SVGID_3_);}
	.st4{fill:#FFFFFF;}
	.st5{fill:url(#SVGID_4_);}
</style>
<path class="st0" d="M475.1,336.4c-10,10-23.6,15.6-37.8,15.6h-384c-14.2,0-27.7-5.6-37.8-15.6l174.1-174.1l29.4,21.3
	c15.6,11.5,36.9,11.5,52.5,0l29.4-21.3L475.1,336.4z"/>
<linearGradient id="SVGID_1_" gradientUnits="userSpaceOnUse" x1="10.027" y1="101.4941" x2="480.427" y2="101.4941">
	<stop  offset="0" style="stop-color:#E829A3"/>
	<stop  offset="1" style="stop-color:#BE1FC9"/>
</linearGradient>
<path class="st1" d="M480.4,32.6L301,162.3l-29.4,21.3c-15.6,11.5-36.9,11.5-52.5,0l-29.4-21.3L10,32.9c10-14,26.1-22.2,43.3-22.2
	h384C454.4,10.7,470.4,18.8,480.4,32.6z"/>
<g>
	<linearGradient id="SVGID_2_" gradientUnits="userSpaceOnUse" x1="-4.657867e-04" y1="184.6405" x2="189.654" y2="184.6405">
		<stop  offset="0" style="stop-color:#E829A3"/>
		<stop  offset="1" style="stop-color:#BE1FC9"/>
	</linearGradient>
	<path class="st2" d="M10,32.9l179.6,129.5L15.6,336.4C5.6,326.4,0,312.8,0,298.7V64C0,52.8,3.5,41.9,10,32.9z"/>
	<linearGradient id="SVGID_3_" gradientUnits="userSpaceOnUse" x1="301.014" y1="184.5335" x2="490.6671" y2="184.5335">
		<stop  offset="0" style="stop-color:#E829A3"/>
		<stop  offset="1" style="stop-color:#BE1FC9"/>
	</linearGradient>
	<path class="st3" d="M490.7,64v234.7c0,14.2-5.6,27.7-15.6,37.8L301,162.3L480.4,32.6C487.1,41.7,490.7,52.7,490.7,64z"/>
</g>
<circle class="st4" cx="245.3" cy="362.7" r="117.3"/>
<linearGradient id="SVGID_4_" gradientUnits="userSpaceOnUse" x1="170.7866" y1="368.0708" x2="309.1927" y2="368.0708">
	<stop  offset="0" style="stop-color:#E829A3"/>
	<stop  offset="1" style="stop-color:#BE1FC9"/>
</linearGradient>
<path class="st5" d="M224,416c-2.8,0-5.5-1.1-7.6-3.1l-42.7-42.7c-4.1-4.2-4-11,0.3-15.1c4.1-4,10.7-4,14.8,0l35.1,35.1l67.1-67.1
	c4.2-4.1,11-4,15.1,0.3c4,4.1,4,10.7,0,14.8l-74.7,74.7C229.5,414.9,226.8,416,224,416z"/>
</svg>
