<svg id="girl" xmlns="http://www.w3.org/2000/svg" xmlns:xlink="http://www.w3.org/1999/xlink" width="344.13" height="416.363" viewBox="0 0 344.13 416.363">
  <defs>
    <clipPath id="clip-path">
      <path id="Path_3566" data-name="Path 3566" d="M2736.795,2274.62l32.289,19.657s-3.72,7.322,5.842,14.621,11.938,16.118,8.322,23.871l-64.011-38.981S2725,2285.505,2736.795,2274.62Z" transform="translate(-2719.237 -2274.62)" fill="none"/>
    </clipPath>
    <clipPath id="clip-path-2">
      <path id="Path_3567" data-name="Path 3567" d="M3143.74,2339.416l32.956-16.737s4.174,6.859,15.164,2.659,19.544-1.637,24.134,5.356l-65.341,33.187S3146.729,2354.819,3143.74,2339.416Z" transform="translate(-3143.74 -2322.679)" fill="none"/>
    </clipPath>
  </defs>
  <path id="Path_90" data-name="Path 90" d="M2783.866,2259.932l-24.068-14.658,30.374-36.229,24.069,14.657Z" transform="translate(-2647.606 -1886.048)" fill="#f2b8d0"/>
  <g id="Group_155" data-name="Group 155" transform="translate(92.931 349.631)">
    <g id="Group_154" data-name="Group 154" transform="translate(2.786)">
      <path id="Path_91" data-name="Path 91" d="M2736.795,2274.62l32.289,19.657s-3.72,7.322,5.842,14.621,11.938,16.118,8.322,23.871l-64.011-38.981S2725,2285.505,2736.795,2274.62Z" transform="translate(-2719.237 -2274.62)" fill="#fff"/>
      <g id="Group_6671" data-name="Group 6671">
        <g id="Group_6670" data-name="Group 6670" clip-path="url(#clip-path)">
          <g id="Group_153" data-name="Group 153" transform="translate(36.8 36.504)">
            <path id="Path_92" data-name="Path 92" d="M2838.175,2365.992s-11.621-7.16-28.332,9.852h0l26.6,16.2S2844.275,2373.8,2838.175,2365.992Z" transform="translate(-2809.844 -2364.497)" fill="#fff" stroke="#081828" stroke-miterlimit="10" stroke-width="2"/>
          </g>
        </g>
      </g>
      <path id="Path_94" data-name="Path 94" d="M2736.795,2274.62l32.289,19.657s-3.72,7.322,5.842,14.621,11.938,16.118,8.322,23.871l-64.011-38.981S2725,2285.505,2736.795,2274.62Z" transform="translate(-2719.237 -2274.62)" fill="none" stroke="#081828" stroke-miterlimit="10" stroke-width="2"/>
    </g>
    <rect id="Rectangle_80" data-name="Rectangle 80" width="5.353" height="74.946" transform="matrix(0.52, -0.854, 0.854, 0.52, 0, 23.743)" fill="#fff" stroke="#081828" stroke-miterlimit="10" stroke-width="2"/>
    <path id="Path_95" data-name="Path 95" d="M2829.3,2336.229s-2.005-1.25-7.849-.666" transform="translate(-2777.152 -2310.719)" fill="#fff" stroke="#081828" stroke-linecap="round" stroke-linejoin="round" stroke-width="2"/>
    <path id="Path_96" data-name="Path 96" d="M2836.714,2350.4a10.294,10.294,0,0,0-7.791-.553" transform="translate(-2781.588 -2318.969)" fill="#fff" stroke="#081828" stroke-linecap="round" stroke-linejoin="round" stroke-width="2"/>
  </g>
  <g id="Group_157" data-name="Group 157" transform="translate(118.283 180.861)">
    <g id="Group_156" data-name="Group 156" transform="translate(0 0)">
      <path id="Path_97" data-name="Path 97" d="M2854.131,1859.088l-17.818,64.17-61.516,83.435,41.672,25.337,58.7-74.447a66.541,66.541,0,0,0,9.278-15.815l11.755-37.392Z" transform="translate(-2774.797 -1859.088)" fill="#fff" stroke="#081828" stroke-miterlimit="10" stroke-width="2"/>
    </g>
  </g>
  <path id="Path_98" data-name="Path 98" d="M3161.46,2283.352l-24.568,12.479-17.184-43.895,24.569-12.478Z" transform="translate(-2861.338 -1904.109)" fill="#f2b8d0"/>
  <g id="Group_160" data-name="Group 160" transform="translate(268.13 369.15)">
    <g id="Group_159" data-name="Group 159" transform="translate(0 0)">
      <path id="Path_99" data-name="Path 99" d="M3143.74,2339.416l32.956-16.737s4.174,6.859,15.164,2.659,19.544-1.637,24.134,5.356l-65.341,33.187S3146.729,2354.819,3143.74,2339.416Z" transform="translate(-3143.74 -2322.679)" fill="#fff"/>
      <g id="Group_6673" data-name="Group 6673">
        <g id="Group_6672" data-name="Group 6672" clip-path="url(#clip-path-2)">
          <g id="Group_158" data-name="Group 158" transform="translate(48.222 -3.337)">
            <path id="Path_100" data-name="Path 100" d="M3270.319,2314.514s-11.93,5.983-6.378,28.629h0l27.157-13.792S3279.951,2313.459,3270.319,2314.514Z" transform="translate(-3262.468 -2314.463)" fill="#fff" stroke="#081828" stroke-linecap="round" stroke-linejoin="round" stroke-width="2"/>
          </g>
        </g>
      </g>
      <path id="Path_102" data-name="Path 102" d="M3143.74,2339.416l32.956-16.737s4.174,6.859,15.164,2.659,19.544-1.637,24.134,5.356l-65.341,33.187S3146.729,2354.819,3143.74,2339.416Z" transform="translate(-3143.74 -2322.679)" fill="none" stroke="#081828" stroke-linecap="round" stroke-linejoin="round" stroke-width="2"/>
    </g>
    <rect id="Rectangle_81" data-name="Rectangle 81" width="73.317" height="5.237" transform="translate(6.913 41.199) rotate(-26.924)" fill="#fff" stroke="#081828" stroke-linecap="round" stroke-linejoin="round" stroke-width="2"/>
    <path id="Path_103" data-name="Path 103" d="M3229.54,2331.06s-2.071,1.026-4.591,6.184" transform="translate(-3191.965 -2327.656)" fill="#fff" stroke="#081828" stroke-linecap="round" stroke-linejoin="round" stroke-width="2"/>
    <path id="Path_104" data-name="Path 104" d="M3245.617,2332.474a10.073,10.073,0,0,0-4.467,6.195" transform="translate(-3201.587 -2328.496)" fill="#fff" stroke="#081828" stroke-linecap="round" stroke-linejoin="round" stroke-width="2"/>
  </g>
  <g id="Group_161" data-name="Group 161" transform="translate(191.097 157.188)">
    <path id="Path_105" data-name="Path 105" d="M3020.511,2011.828l-56.623-143.113c-21.5-35.354-.976-63-.976-63l39.86-4.909c0,6.521,61.786,188.257,61.786,188.257Z" transform="translate(-2954.074 -1800.802)" fill="#fff" stroke="#081828" stroke-miterlimit="10" stroke-width="2"/>
  </g>
  <g id="Group_163" data-name="Group 163" transform="translate(266.898 0)">
    <g id="Group_162" data-name="Group 162" transform="translate(0 0)">
      <path id="Path_106" data-name="Path 106" d="M3167.641,1444.734s1.436-17.076-11.211-23.684c-.925-.483-3.3-6.36-4.363-6.658-9.469-2.641-10.826,3.79-11.329,10.562a15.422,15.422,0,0,0,5.447,12.783l9.572,10.821-1.455,12.315,14.008-2.044Z" transform="translate(-3140.706 -1413.786)" fill="#f2b8d0"/>
    </g>
  </g>
  <path id="Path_107" data-name="Path 107" d="M3144.928,1527.038l1.293-36.3,31.673,5.053-.67,40.411Z" transform="translate(-2876.315 -1459.484)" fill="#fc35b4"/>
  <g id="Group_164" data-name="Group 164" transform="translate(197.111 60.965)">
    <path id="Path_108" data-name="Path 108" d="M2981.059,1588.21,3052,1564.629a15.891,15.891,0,0,1,18.813,7.682h0a15.891,15.891,0,0,1-8.616,22.411l-69.926,26.4a17.388,17.388,0,0,1-21.12-7.737h0a17.391,17.391,0,0,1,9.908-25.176Z" transform="translate(-2968.88 -1563.889)" fill="#fc35b4"/>
  </g>
  <g id="Group_166" data-name="Group 166" transform="translate(0 227.837)">
    <g id="Group_165" data-name="Group 165" transform="translate(79.371 0)">
      <path id="Path_109" data-name="Path 109" d="M2680.558,2051.855a1.571,1.571,0,0,1-1.342-2.382l44.594-73.963a1.571,1.571,0,0,1,2.691,1.623l-44.594,73.962A1.569,1.569,0,0,1,2680.558,2051.855Z" transform="translate(-2678.99 -1974.749)" fill="#071828"/>
    </g>
    <path id="Rectangle_82" data-name="Rectangle 82" d="M2509.464,2247.054h0a18.445,18.445,0,0,1-6.162-25.346l27.6-45.326a18.446,18.446,0,0,1,25.347-6.161h0a18.445,18.445,0,0,1,6.161,25.347l-27.6,45.326A18.444,18.444,0,0,1,2509.464,2247.054Z" transform="translate(-2493.688 -2089.23)" fill="#fff" stroke="#081828" stroke-miterlimit="10" stroke-width="2"/>
    <path id="Rectangle_83" data-name="Rectangle 83" d="M2651.526,2116.767h0a3.106,3.106,0,0,1-1.039-4.27l5.95-9.771a3.108,3.108,0,0,1,4.27-1.038h0a3.108,3.108,0,0,1,1.038,4.27l-5.95,9.771A3.107,3.107,0,0,1,2651.526,2116.767Z" transform="translate(-2582.423 -2049.863)" fill="#fff" stroke="#081828" stroke-miterlimit="10" stroke-width="2"/>
    <rect id="Rectangle_84" data-name="Rectangle 84" width="121.489" height="39.359" rx="19.679" transform="translate(0 158.997) rotate(-58.663)" fill="#c727ee"/>
    <path id="Path_110" data-name="Path 110" d="M2546.195,2402.326a8.18,8.18,0,1,0,8.18-8.181,8.181,8.181,0,0,0-8.18,8.181Z" transform="translate(-2520.759 -2223.806)" fill="#fff" stroke="#28272d" stroke-miterlimit="10" stroke-width="2"/>
    <line id="Line_26" data-name="Line 26" x2="7.07" y2="7.07" transform="translate(26.805 173.578)" fill="none" stroke="#081828" stroke-width="2"/>
    <line id="Line_27" data-name="Line 27" x2="4.713" y2="4.713" transform="translate(29.161 172.007)" fill="none" stroke="#081828" stroke-width="2"/>
  </g>
  <g id="Group_168" data-name="Group 168" transform="translate(151.531 85.684)">
    <g id="Group_167" data-name="Group 167">
      <path id="Path_111" data-name="Path 111" d="M2922.092,1653.6l-36.764,45.893a16.145,16.145,0,0,1-20.259,3.982h0a16.146,16.146,0,0,1-5.2-23.835l34.325-47.723a17.667,17.667,0,0,1,22.249-5.221h0a17.667,17.667,0,0,1,5.646,26.9Z" transform="translate(-2856.657 -1624.751)" fill="#fc35b4"/>
    </g>
  </g>
  <circle id="Ellipse_15" data-name="Ellipse 15" cx="15.446" cy="15.446" r="15.446" transform="translate(114.311 203.161)" fill="#f2b8d0"/>
  <path id="Path_112" data-name="Path 112" d="M2814.284,1763.288l-32.948,58.42,27.158,13.6,35.727-58.13Z" transform="translate(-2660.397 -1621.336)" fill="#fc35b4"/>
  <g id="Group_169" data-name="Group 169" transform="translate(186.917 81.539)">
    <path id="Path_113" data-name="Path 113" d="M2995.936,1619.011h0c7.737,2.811,10.863,21.682,13.2,25.105,8.944,13.1.632,25.019-.89,25.83l-7.524,34.148-48.088-2.38-1.856-54.65-7-14.958c1.019-17.8,35.189-17.561,35.189-17.561Z" transform="translate(-2943.78 -1614.545)" fill="#fc35b4"/>
  </g>
  <path id="Path_114" data-name="Path 114" d="M3033.591,1441.819c.909.237,17.063-2.35,16.571,20.262-.292,13.4,2.955,17.084,5.763,20.389a7.151,7.151,0,0,1-3.427,11.48l-39.519,11.728-9.482-35.255Z" transform="translate(-2792.327 -1430.433)" fill="#081828"/>
  <path id="Path_115" data-name="Path 115" d="M3053.588,1540.4l-.425,32.671c-7.381-.718-14.273-2.517-19.171-8.735l.541-39.223Z" transform="translate(-2810.435 -1479.896)" fill="#f2b8d0"/>
  <path id="Path_116" data-name="Path 116" d="M3069.386,1578.538c.024-.412-7.352-12.48-7.352-12.48l9.226,1.545Z" transform="translate(-2827.089 -1504.212)" fill="#1b172d"/>
  <path id="Path_117" data-name="Path 117" d="M3035.374,1448.1s10.737-1.049,14.769,11.724c0,0,2.82,9.288,6.771,22.69,2.088,7.082-2.819,14.6-10.195,14.937a34.516,34.516,0,0,1-14.838-2.408l-7.445-3.966c-18.042-11.791-12-40.037,9.373-42.8Q3034.576,1448.177,3035.374,1448.1Z" transform="translate(-2798.436 -1434.153)" fill="#f2b8d0"/>
  <path id="Path_118" data-name="Path 118" d="M3008.307,1471.056s-14.526-29.755,16.011-24.273c0,0-9.473-12.365-33.38.823-6.587,3.631-11.211,12.83-9.99,20.252,1.058,6.43,3.979,3.449,14.415,14.052l10.625-2.278C3005.944,1477.313,3008.307,1471.056,3008.307,1471.056Z" transform="translate(-2778.819 -1430.257)" fill="#081828"/>
  <path id="Path_119" data-name="Path 119" d="M3018.013,1465.338l8.91,11.486c31.809-20.181,9.521-33.376,9.521-33.376S3008.2,1443.854,3018.013,1465.338Z" transform="translate(-2799.717 -1431.4)" fill="#081828"/>
  <path id="Path_120" data-name="Path 120" d="M3049.819,1445.845s12.422-1.214,16.363,6.574c0,0,2.017-13.63-18.711-11.96C3035.316,1441.439,3049.819,1445.845,3049.819,1445.845Z" transform="translate(-2815.558 -1429.541)" fill="#081828"/>
  <path id="Path_121" data-name="Path 121" d="M2994.378,1513.6c.36-.007,10.475,3.118,16.135,9.927,6.315,7.6,2.421,19.225-7.12,21.789l-26.046,7.006a13.294,13.294,0,0,1-11.636-2.172c-4.1-3.2-7.736-8.848-3.045-17.972a44.9,44.9,0,0,0,3.443-8.4,68.121,68.121,0,0,0,2.544-22.35Z" transform="translate(-2766.769 -1465.831)" fill="#081828"/>
  <g id="Group_171" data-name="Group 171" transform="translate(220.259 37.038)">
    <g id="Group_170" data-name="Group 170" transform="translate(0 0)">
      <path id="Path_122" data-name="Path 122" d="M3025.992,1513.366a8.843,8.843,0,1,0,0-.005Z" transform="translate(-3025.875 -1504.977)" fill="#f2b8d0"/>
    </g>
  </g>
  <g id="Group_172" data-name="Group 172" transform="translate(135.596 183.97)">
    <path id="Path_123" data-name="Path 123" d="M2942.987,2044.639a2.97,2.97,0,1,0-5.3-.692l1.2,2.927,2.926-1.2A1.788,1.788,0,0,0,2942.987,2044.639Z" transform="translate(-2888.752 -1969.653)" fill="#fff" stroke="#081828" stroke-miterlimit="10" stroke-width="2"/>
    <path id="Path_124" data-name="Path 124" d="M2906.8,2093.98a2.97,2.97,0,1,0-5.3-.693l1.2,2.927,2.927-1.2A1.791,1.791,0,0,0,2906.8,2093.98Z" transform="translate(-2867.264 -1998.954)" fill="#fff" stroke="#081828" stroke-miterlimit="10" stroke-width="2"/>
    <path id="Path_125" data-name="Path 125" d="M2980.815,2097.271a2.97,2.97,0,1,0-5.3-.692l1.2,2.927,2.926-1.2A1.794,1.794,0,0,0,2980.815,2097.271Z" transform="translate(-2911.215 -2000.908)" fill="#fff" stroke="#081828" stroke-miterlimit="10" stroke-width="2"/>
    <path id="Path_126" data-name="Path 126" d="M2873.952,2243.628a2.969,2.969,0,1,0-5.3-.693l1.2,2.927,2.927-1.2A1.788,1.788,0,0,0,2873.952,2243.628Z" transform="translate(-2847.756 -2087.823)" fill="#fff" stroke="#081828" stroke-miterlimit="10" stroke-width="2"/>
    <path id="Path_127" data-name="Path 127" d="M2892.5,2168.541a2.97,2.97,0,1,0-5.3-.691l1.2,2.926,2.926-1.2A1.792,1.792,0,0,0,2892.5,2168.541Z" transform="translate(-2858.771 -2043.232)" fill="#fff" stroke="#081828" stroke-miterlimit="10" stroke-width="2"/>
    <path id="Path_128" data-name="Path 128" d="M2822.876,2192.664a2.97,2.97,0,1,0-5.3-.692l1.2,2.927,2.926-1.2A1.79,1.79,0,0,0,2822.876,2192.664Z" transform="translate(-2817.424 -2057.557)" fill="#fff" stroke="#081828" stroke-miterlimit="10" stroke-width="2"/>
    <path id="Path_129" data-name="Path 129" d="M3005.953,1869.2a2.97,2.97,0,1,0-4.335,3.126l2.88,1.309,1.31-2.88A1.787,1.787,0,0,0,3005.953,1869.2Z" transform="translate(-2925.881 -1866.743)" fill="#fff" stroke="#081828" stroke-miterlimit="10" stroke-width="2"/>
    <path id="Path_130" data-name="Path 130" d="M3071.823,1911.963a2.97,2.97,0,1,0-4.334,3.126l2.879,1.31,1.31-2.879A1.786,1.786,0,0,0,3071.823,1911.963Z" transform="translate(-2964.996 -1892.137)" fill="#fff" stroke="#081828" stroke-miterlimit="10" stroke-width="2"/>
    <path id="Path_131" data-name="Path 131" d="M3048.249,2018.32a2.97,2.97,0,1,0-4.334,3.126l2.88,1.31,1.309-2.88A1.788,1.788,0,0,0,3048.249,2018.32Z" transform="translate(-2950.998 -1955.296)" fill="#fff" stroke="#081828" stroke-miterlimit="10" stroke-width="2"/>
    <path id="Path_132" data-name="Path 132" d="M3124.826,2052.965a2.97,2.97,0,1,0-4.335,3.127l2.879,1.309,1.31-2.88A1.788,1.788,0,0,0,3124.826,2052.965Z" transform="translate(-2996.473 -1975.871)" fill="#fff" stroke="#081828" stroke-miterlimit="10" stroke-width="2"/>
    <path id="Path_133" data-name="Path 133" d="M3097.963,2152.49a2.97,2.97,0,1,0-4.335,3.127l2.88,1.31,1.31-2.879A1.791,1.791,0,0,0,3097.963,2152.49Z" transform="translate(-2980.52 -2034.974)" fill="#fff" stroke="#081828" stroke-miterlimit="10" stroke-width="2"/>
    <path id="Path_134" data-name="Path 134" d="M3166.493,2208.314a2.97,2.97,0,1,0-4.336,3.126l2.88,1.31,1.309-2.879A1.789,1.789,0,0,0,3166.493,2208.314Z" transform="translate(-3021.217 -2068.123)" fill="#fff" stroke="#081828" stroke-miterlimit="10" stroke-width="2"/>
    <path id="Path_135" data-name="Path 135" d="M2998.94,1939.863a2.97,2.97,0,1,0-4.335,3.126l2.88,1.31,1.31-2.879A1.788,1.788,0,0,0,2998.94,1939.863Z" transform="translate(-2921.716 -1908.705)" fill="#fff" stroke="#081828" stroke-miterlimit="10" stroke-width="2"/>
  </g>
</svg>
