<svg id="google" xmlns="http://www.w3.org/2000/svg" xmlns:xlink="http://www.w3.org/1999/xlink" width="206.258" height="50.527" viewBox="0 0 206.258 50.527">
  <defs>
    <clipPath id="clip-path">
      <path id="Path_3498" data-name="Path 3498" d="M168.144,348.187,157.6,342.1,137.26,330.355c-1.129-.652-2.254-.257-2.254,1.105v47.847c0,1.021.8,1.462,1.785.9L157.6,368.188l10.544-6.088,10.136-5.851c1.189-.687,1.075-1.63.072-2.17S168.144,348.187,168.144,348.187Z" transform="translate(-135.006 -330.047)" fill="none"/>
    </clipPath>
    <linearGradient id="linear-gradient" x1="0.5" x2="0.5" y2="1" gradientUnits="objectBoundingBox">
      <stop offset="0" stop-color="#006aa2"/>
      <stop offset="0.345" stop-color="#2f8da6"/>
      <stop offset="0.786" stop-color="#66b6ac"/>
      <stop offset="1" stop-color="#7cc6af"/>
    </linearGradient>
    <linearGradient id="linear-gradient-2" y1="0.5" x2="1" y2="0.5" gradientUnits="objectBoundingBox">
      <stop offset="0" stop-color="#4ab59d"/>
      <stop offset="1" stop-color="#dfe385"/>
    </linearGradient>
    <linearGradient id="linear-gradient-3" x1="0.5" x2="0.5" y2="1" gradientUnits="objectBoundingBox">
      <stop offset="0" stop-color="#e4282d"/>
      <stop offset="0.316" stop-color="#ba2d4e"/>
      <stop offset="0.777" stop-color="#83357b"/>
      <stop offset="1" stop-color="#6e388d"/>
    </linearGradient>
    <linearGradient id="linear-gradient-4" x1="0.5" x2="0.5" y2="1" gradientUnits="objectBoundingBox">
      <stop offset="0" stop-color="#f07165"/>
      <stop offset="0.659" stop-color="#faa460"/>
      <stop offset="1" stop-color="#ffba5e"/>
    </linearGradient>
  </defs>
  <g id="PLAY" transform="translate(0 0.122)">
    <g id="Group_6699" data-name="Group 6699" clip-path="url(#clip-path)">
      <path id="Path_3494" data-name="Path 3494" d="M135.006,328.285v51.8l26.122-25.9Z" transform="translate(-135.006 -329.091)" fill="url(#linear-gradient)"/>
      <path id="Path_3495" data-name="Path 3495" d="M168.144,347.006,157.6,340.918l-22.594-13.045v.188l26.122,25.9Z" transform="translate(-135.006 -328.867)" fill="url(#linear-gradient-2)"/>
      <path id="Path_3496" data-name="Path 3496" d="M135.006,410.839v.188L157.6,397.981l10.544-6.088-7.016-6.956Z" transform="translate(-135.006 -359.841)" fill="url(#linear-gradient-3)"/>
      <path id="Path_3497" data-name="Path 3497" d="M199.156,369.721l-7.016,6.957,7.016,6.956,12.051-6.957Z" transform="translate(-166.018 -351.582)" fill="url(#linear-gradient-4)"/>
    </g>
  </g>
  <g id="Group_6813" data-name="Group 6813" transform="translate(157.446 13.681)">
    <path id="Path_3499" data-name="Path 3499" d="M486.377,388.547A6.514,6.514,0,0,1,483.69,388a5.064,5.064,0,0,1-2.042-1.67h-.165a20.257,20.257,0,0,1,.165,2.5v6.2h-2.281V373.207h1.855l.315,2.062h.11a5.3,5.3,0,0,1,2.049-1.787,6.223,6.223,0,0,1,2.68-.55A5.568,5.568,0,0,1,491,374.98a10.909,10.909,0,0,1-.026,11.513A5.582,5.582,0,0,1,486.377,388.547Zm-.33-13.677a4.043,4.043,0,0,0-3.339,1.278,6.582,6.582,0,0,0-1.059,4.069v.508a7.537,7.537,0,0,0,1.059,4.543,4.026,4.026,0,0,0,3.395,1.367,3.532,3.532,0,0,0,3.06-1.58,7.5,7.5,0,0,0,1.106-4.358,7.219,7.219,0,0,0-1.106-4.323A3.642,3.642,0,0,0,486.047,374.87Z" transform="translate(-479.368 -366.884)" fill="#f9f9f9"/>
    <path id="Path_3500" data-name="Path 3500" d="M517.226,381.091h-2.282V359.7h2.282Z" transform="translate(-498.678 -359.703)" fill="#f9f9f9"/>
    <path id="Path_3501" data-name="Path 3501" d="M536.289,388.3l-.454-2.144h-.11a6.321,6.321,0,0,1-2.248,1.917,6.827,6.827,0,0,1-2.8.5,5.033,5.033,0,0,1-3.512-1.154,4.21,4.21,0,0,1-1.272-3.285q0-4.563,7.3-4.784l2.558-.083v-.934a3.815,3.815,0,0,0-.764-2.619,3.135,3.135,0,0,0-2.44-.846,9.935,9.935,0,0,0-4.261,1.155l-.7-1.746a10.724,10.724,0,0,1,2.441-.948,10.564,10.564,0,0,1,2.66-.344,5.74,5.74,0,0,1,3.993,1.2,5,5,0,0,1,1.3,3.836V388.3Zm-5.155-1.608a4.635,4.635,0,0,0,3.347-1.168,4.327,4.327,0,0,0,1.217-3.272V380.9l-2.283.1a8.3,8.3,0,0,0-3.924.847,2.549,2.549,0,0,0-1.2,2.33,2.347,2.347,0,0,0,.749,1.883A3.106,3.106,0,0,0,531.135,386.7Z" transform="translate(-504.623 -366.916)" fill="#f9f9f9"/>
    <path id="Path_3502" data-name="Path 3502" d="M555.222,373.533h2.446l3.3,8.591a32.82,32.82,0,0,1,1.348,4.248h.11q.178-.7.749-2.4t3.732-10.439h2.448l-6.475,17.155a8.559,8.559,0,0,1-2.248,3.609,4.78,4.78,0,0,1-3.154,1.064,9.229,9.229,0,0,1-2.062-.233V393.3a7.965,7.965,0,0,0,1.691.165q2.351,0,3.354-2.64l.838-2.144Z" transform="translate(-520.541 -367.21)" fill="#f9f9f9"/>
  </g>
  <g id="Group_6814" data-name="Group 6814" transform="translate(53.425 11.997)">
    <path id="Path_3503" data-name="Path 3503" d="M388.3,375.248a5.311,5.311,0,0,1,2.237,4.254c0,2.33-1.324,3.436-2.647,4.474a2.217,2.217,0,0,0-.882,1.546,1.728,1.728,0,0,0,.82,1.354l1.135.881c1.386,1.166,2.645,2.239,2.645,4.414,0,2.962-2.868,5.955-8.286,5.955-4.57,0-6.775-2.174-6.775-4.507a4.534,4.534,0,0,1,2.426-3.844,13.582,13.582,0,0,1,6.018-1.45,3.3,3.3,0,0,1-.946-2.14,2.843,2.843,0,0,1,.315-1.231c-.348.032-.694.064-1.01.064a4.982,4.982,0,0,1-5.23-4.946,5.669,5.669,0,0,1,2.016-4.223,8.593,8.593,0,0,1,5.642-1.734h6.49l-2.017,1.135Zm-2.238,13.992a4.888,4.888,0,0,0-.724-.033,12.609,12.609,0,0,0-3.309.507c-.693.25-2.71,1.007-2.71,3.245s2.175,3.846,5.547,3.846c3.024,0,4.632-1.452,4.632-3.4C389.494,391.789,388.454,390.942,386.059,389.239Zm.914-5.988a3.188,3.188,0,0,0,.786-2.3c0-2.268-1.354-5.8-3.969-5.8a2.943,2.943,0,0,0-2.206,1.04,3.64,3.64,0,0,0-.694,2.332c0,2.111,1.229,5.609,3.94,5.609A3.226,3.226,0,0,0,386.973,383.252Z" transform="translate(-319.535 -365.84)" fill="#f9f9f9"/>
    <path id="Path_3504" data-name="Path 3504" d="M349.749,388.2a7.424,7.424,0,0,1-7.676-7.426,7.8,7.8,0,0,1,8.149-7.643,7.355,7.355,0,0,1,7.517,7.424A7.687,7.687,0,0,1,349.749,388.2Zm3.932-2.548a5.691,5.691,0,0,0,.945-3.493c0-2.769-1.321-8.054-5.223-8.054a4.382,4.382,0,0,0-2.831,1.071,4.76,4.76,0,0,0-1.448,3.839c0,3.112,1.542,8.238,5.349,8.238A4.018,4.018,0,0,0,353.681,385.656Z" transform="translate(-300.825 -365.309)" fill="#f9f9f9"/>
    <path id="Path_3505" data-name="Path 3505" d="M312.453,388.2a7.424,7.424,0,0,1-7.677-7.426,7.8,7.8,0,0,1,8.149-7.643,7.355,7.355,0,0,1,7.518,7.424A7.687,7.687,0,0,1,312.453,388.2Zm3.933-2.548a5.7,5.7,0,0,0,.944-3.493c0-2.769-1.322-8.054-5.223-8.054a4.384,4.384,0,0,0-2.831,1.071,4.76,4.76,0,0,0-1.447,3.839c0,3.112,1.541,8.238,5.349,8.238A4.021,4.021,0,0,0,316.385,385.656Z" transform="translate(-280.58 -365.309)" fill="#f9f9f9"/>
    <path id="Path_3506" data-name="Path 3506" d="M273.648,379.257l-4.523,1.044a33.521,33.521,0,0,1-5.218.536c-8.731,0-12.051-6.421-12.051-11.45,0-6.135,4.712-11.827,12.779-11.827a18.207,18.207,0,0,1,4.838.664,12.332,12.332,0,0,1,4.175,1.961l-2.626,2.5-1.107.251.791-1.265a9.04,9.04,0,0,0-6.768-2.972c-5,0-8.762,3.8-8.762,9.332,0,5.945,4.3,11.543,11.2,11.543a9.419,9.419,0,0,0,4.017-.791V373.69l-4.775.253,2.529-1.362h6.706l-.821.791a.738.738,0,0,0-.317.505c-.033.285-.063,1.2-.063,1.519Z" transform="translate(-251.856 -356.855)" fill="#f9f9f9"/>
    <path id="Path_3507" data-name="Path 3507" d="M416.139,377.51c-1.044-.1-1.263-.284-1.263-1.519v-17.9c.006-.068.011-.138.017-.2.128-1.106.443-1.3,1.425-1.866h-4.525l-2.373,1.139h2.418v.014l0-.011v19.527c0,.631-.125.727-.853,1.675h5.6l1.17-.694C417.216,377.6,416.678,377.573,416.139,377.51Z" transform="translate(-337.381 -356.019)" fill="#f9f9f9"/>
    <path id="Path_3508" data-name="Path 3508" d="M438.655,387.1c-.344.189-.69.41-1.034.565a7.315,7.315,0,0,1-3.05.6,6.713,6.713,0,0,1-4.178-1.226,8.129,8.129,0,0,1-3.2-6.628,7.119,7.119,0,0,1,7.193-7.255,6.106,6.106,0,0,1,3.237.88,5.2,5.2,0,0,1,2.2,3.108l-7.38,2.985-2.419.188c.784,3.989,3.485,6.312,6.47,6.312a8.115,8.115,0,0,0,3.832-1.1Zm-2.951-9.361c.6-.219.91-.408.91-.848a3.117,3.117,0,0,0-3.11-2.7c-1.258,0-3.612.974-3.612,4.366,0,.534.063,1.1.1,1.666Z" transform="translate(-347.025 -365.321)" fill="#f9f9f9"/>
    <g id="Group_6701" data-name="Group 6701" transform="translate(93.724 7.835)">
      <path id="Path_3509" data-name="Path 3509" d="M457.783,373.371v2.073h-.251v-2.073h-.686v-.215h1.623v.215Z" transform="translate(-456.846 -373.156)" fill="#f9f9f9"/>
      <path id="Path_3510" data-name="Path 3510" d="M463.025,375.443v-2.092h-.011l-.639,2.092h-.2l-.644-2.092h-.008v2.092H461.3v-2.287h.392l.583,1.849h.008l.574-1.849h.4v2.287Z" transform="translate(-459.262 -373.156)" fill="#f9f9f9"/>
    </g>
  </g>
  <g id="Group_6815" data-name="Group 6815" transform="translate(53.479)">
    <path id="Path_3511" data-name="Path 3511" d="M258.2,336.5H256.63a10.428,10.428,0,0,0-.447-1.837h-2.269a9.5,9.5,0,0,0-.462,1.837h-1.478q0-.191,1.147-3.143a24.713,24.713,0,0,0,1.147-3.251h1.856a27.139,27.139,0,0,0,1.039,3.2A28.057,28.057,0,0,1,258.2,336.5Zm-2.269-2.775a27.809,27.809,0,0,1-.84-2.741h-.079q0,.192-.869,2.741Z" transform="translate(-251.974 -329.955)" fill="#f7f8f8"/>
    <path id="Path_3512" data-name="Path 3512" d="M273.19,336.5h-1.213a11.957,11.957,0,0,0-1.351-2.126,11.717,11.717,0,0,1-1.611-2.775h-.079a17.3,17.3,0,0,1,.123,1.945q0,1.213.069,2.957H267.92q.074-1.522.074-3.345,0-1.793-.074-3.05h1.459a9.24,9.24,0,0,0,1.213,2.077,12.23,12.23,0,0,1,1.483,2.618h.074a18.641,18.641,0,0,1-.117-1.965q0-1.331-.069-2.73h1.228q-.069,1.218-.069,3.05Q273.121,335,273.19,336.5Z" transform="translate(-260.629 -329.955)" fill="#f7f8f8"/>
    <path id="Path_3513" data-name="Path 3513" d="M288.6,333.044a3.622,3.622,0,0,1-.894,2.436,3.122,3.122,0,0,1-2.5,1.042q-.727,0-2-.059.064-1.483.064-3.345,0-1.787-.064-3.05h.859q.211,0,.629-.015c.278-.01.46-.015.545-.015a3.311,3.311,0,0,1,2.571.884A3.057,3.057,0,0,1,288.6,333.044Zm-1.341.211a2.366,2.366,0,0,0-.55-1.589,2.085,2.085,0,0,0-1.68-.646,5.192,5.192,0,0,0-.58.044q.049.983.049,2.053,0,1.174.049,2.328a3.253,3.253,0,0,0,.639.064,1.856,1.856,0,0,0,1.564-.656A2.531,2.531,0,0,0,287.262,333.255Z" transform="translate(-268.923 -329.92)" fill="#f7f8f8"/>
    <path id="Path_3514" data-name="Path 3514" d="M303.228,336.462h-1.454a9.642,9.642,0,0,0-.874-2.146,1.145,1.145,0,0,0-.982-.408c-.19,0-.372,0-.545.005q0,1.263.044,2.549h-1.365q.064-1.483.064-3.345,0-1.787-.064-3.05h.849q.147,0,.616-.015t.867-.015q2.254,0,2.254,1.542a1.73,1.73,0,0,1-1.287,1.7v.074a1.534,1.534,0,0,1,.87.773A17.091,17.091,0,0,1,303.228,336.462Zm-1.842-4.519q0-.977-1.257-.978a4.285,4.285,0,0,0-.816.069q.054.761.054,1.984.269.01.457.01Q301.386,333.029,301.386,331.944Z" transform="translate(-276.984 -329.92)" fill="#f7f8f8"/>
    <path id="Path_3515" data-name="Path 3515" d="M317.349,333.007a3.528,3.528,0,0,1-.923,2.5,3,3,0,0,1-2.284.992,2.886,2.886,0,0,1-2.171-.912,3.207,3.207,0,0,1-.874-2.315,3.525,3.525,0,0,1,.923-2.5,3,3,0,0,1,2.284-.992,2.889,2.889,0,0,1,2.171.909A3.205,3.205,0,0,1,317.349,333.007Zm-1.355.142a2.535,2.535,0,0,0-.526-1.665,1.618,1.618,0,0,0-1.3-.639,1.5,1.5,0,0,0-1.218.644,2.568,2.568,0,0,0-.5,1.625,2.529,2.529,0,0,0,.528,1.662,1.618,1.618,0,0,0,1.294.641,1.5,1.5,0,0,0,1.218-.646A2.57,2.57,0,0,0,315.994,333.149Z" transform="translate(-284.065 -329.78)" fill="#f7f8f8"/>
    <path id="Path_3516" data-name="Path 3516" d="M329.195,336.5H327.8q.064-1.522.064-3.345,0-1.793-.064-3.05h1.39q-.064,1.237-.064,3.05Q329.131,335.005,329.195,336.5Z" transform="translate(-293.134 -329.955)" fill="#f7f8f8"/>
    <path id="Path_3517" data-name="Path 3517" d="M340,333.044a3.621,3.621,0,0,1-.894,2.436,3.121,3.121,0,0,1-2.5,1.042q-.727,0-2-.059.064-1.483.064-3.345,0-1.787-.064-3.05h.86q.211,0,.629-.015c.278-.01.46-.015.545-.015a3.311,3.311,0,0,1,2.571.884A3.058,3.058,0,0,1,340,333.044Zm-1.341.211a2.369,2.369,0,0,0-.55-1.589,2.086,2.086,0,0,0-1.68-.646,5.185,5.185,0,0,0-.58.044q.049.983.049,2.053,0,1.174.049,2.328a3.252,3.252,0,0,0,.639.064,1.856,1.856,0,0,0,1.564-.656A2.531,2.531,0,0,0,338.661,333.255Z" transform="translate(-296.822 -329.92)" fill="#f7f8f8"/>
    <path id="Path_3518" data-name="Path 3518" d="M359.678,336.5h-1.571a10.36,10.36,0,0,0-.448-1.837h-2.269a9.482,9.482,0,0,0-.461,1.837H353.45q0-.191,1.147-3.143a24.674,24.674,0,0,0,1.147-3.251H357.6a27.09,27.09,0,0,0,1.039,3.2A28.2,28.2,0,0,1,359.678,336.5Zm-2.269-2.775a27.887,27.887,0,0,1-.84-2.741h-.078a28.737,28.737,0,0,1-.869,2.741Z" transform="translate(-307.054 -329.955)" fill="#f7f8f8"/>
    <path id="Path_3519" data-name="Path 3519" d="M374.062,331.742a1.915,1.915,0,0,1-.872,1.734,3.877,3.877,0,0,1-2.138.56q-.231,0-.329-.01,0,.923.054,2.436H369.4q.064-1.419.064-3.345,0-1.768-.064-3.05h.855q.181,0,.7-.015t.894-.015a2.811,2.811,0,0,1,1.576.422A1.428,1.428,0,0,1,374.062,331.742Zm-1.267.27q0-1.051-1.395-1.051a3.93,3.93,0,0,0-.737.074q.054.928.054,2.1.123.01.285.01Q372.795,333.147,372.795,332.012Z" transform="translate(-315.709 -329.92)" fill="#f7f8f8"/>
    <path id="Path_3520" data-name="Path 3520" d="M386.946,331.742a1.915,1.915,0,0,1-.871,1.734,3.881,3.881,0,0,1-2.139.56c-.154,0-.263,0-.329-.01q0,.923.054,2.436h-1.38q.064-1.419.064-3.345,0-1.768-.064-3.05h.855q.182,0,.7-.015t.894-.015a2.811,2.811,0,0,1,1.576.422A1.428,1.428,0,0,1,386.946,331.742Zm-1.267.27q0-1.051-1.395-1.051a3.93,3.93,0,0,0-.737.074q.054.928.054,2.1c.082.007.177.01.285.01Q385.679,333.147,385.679,332.012Z" transform="translate(-322.703 -329.92)" fill="#f7f8f8"/>
    <path id="Path_3521" data-name="Path 3521" d="M406.127,333.007a3.526,3.526,0,0,1-.924,2.5,3,3,0,0,1-2.284.992,2.886,2.886,0,0,1-2.171-.912,3.209,3.209,0,0,1-.874-2.315,3.527,3.527,0,0,1,.923-2.5,3,3,0,0,1,2.284-.992,2.889,2.889,0,0,1,2.171.909A3.208,3.208,0,0,1,406.127,333.007Zm-1.356.142a2.532,2.532,0,0,0-.526-1.665,1.617,1.617,0,0,0-1.3-.639,1.5,1.5,0,0,0-1.219.644,2.567,2.567,0,0,0-.5,1.625,2.529,2.529,0,0,0,.528,1.662,1.617,1.617,0,0,0,1.294.641,1.5,1.5,0,0,0,1.218-.646A2.567,2.567,0,0,0,404.772,333.149Z" transform="translate(-332.253 -329.78)" fill="#f7f8f8"/>
    <path id="Path_3522" data-name="Path 3522" d="M421.854,336.5h-1.213a11.956,11.956,0,0,0-1.351-2.126,11.723,11.723,0,0,1-1.611-2.775H417.6a17.41,17.41,0,0,1,.122,1.945q0,1.213.069,2.957h-1.208q.073-1.522.074-3.345,0-1.793-.074-3.05h1.458a9.254,9.254,0,0,0,1.214,2.077,12.237,12.237,0,0,1,1.483,2.618h.074a18.53,18.53,0,0,1-.118-1.965q0-1.331-.069-2.73h1.228q-.069,1.218-.069,3.05Q421.785,335,421.854,336.5Z" transform="translate(-341.323 -329.955)" fill="#f7f8f8"/>
  </g>
</svg>
