<svg id="topleftbg" xmlns="http://www.w3.org/2000/svg" width="1029.873" height="910.738" viewBox="0 0 1029.873 910.738">
  <path id="Subtraction_2" data-name="Subtraction 2" d="M695.587,1440.284c-13.4,0-26.58-.37-39.171-1.1-12.428-.721-24.63-1.813-36.265-3.245-11.482-1.413-22.734-3.2-33.444-5.3-10.565-2.077-20.9-4.523-30.707-7.272V542.395c2.131-4.375,4.178-8.574,6.263-12.849h933.921c-7.826,23.465-18.16,46.272-28.153,68.327-17.287,38.152-33.615,74.188-34.5,108.049-.475,18.108,3.472,34.181,12.066,49.137a103.516,103.516,0,0,0,7.911,11.762,124.076,124.076,0,0,0,10.209,11.551,178.266,178.266,0,0,0,27.992,22.464,217.3,217.3,0,0,1,46.08,40.715,203.534,203.534,0,0,1,31.957,51.493,199.332,199.332,0,0,1,15.22,59.812,214.522,214.522,0,0,1-4.132,65.672,243.515,243.515,0,0,1-8.143,28.76,270.22,270.22,0,0,1-12.218,29.179,305.669,305.669,0,0,1-16.487,29.414,351.379,351.379,0,0,1-20.95,29.468c-7.809,9.886-16.424,19.757-25.608,29.338-9.4,9.812-19.653,19.578-30.459,29.026-11.066,9.675-23.012,19.275-35.505,28.532-12.793,9.478-26.5,18.85-40.745,27.855-14.585,9.22-30.122,18.3-46.179,26.995-16.438,8.9-33.868,17.63-51.808,25.953-18.359,8.517-37.748,16.837-57.63,24.728-20.338,8.072-41.751,15.918-63.646,23.32-22.388,7.569-45.891,14.88-69.857,21.73-24.5,7-50.156,13.717-76.262,19.958-26.675,6.376-54.554,12.433-82.861,18-28.915,5.689-59.079,11.026-89.654,15.865-28.878,4.57-56.876,8.033-83.216,10.295C743.82,1439.161,718.917,1440.283,695.587,1440.284Z" transform="translate(-556 -529.546)" fill="#fef1f9"/>
</svg>
